M48
; DRILL file {KiCad 8.0.3} date 2024-07-23T11:53:19+0100
; FORMAT={-:-/ absolute / inch / decimal}
; #@! TF.CreationDate,2024-07-23T11:53:19+01:00
; #@! TF.GenerationSoftware,Kicad,Pcbnew,8.0.3
; #@! TF.FileFunction,Plated,1,2,PTH
FMAT,2
INCH
; #@! TA.AperFunction,Plated,PTH,ComponentDrill
T1C0.0079
; #@! TA.AperFunction,Plated,PTH,ViaDrill
T2C0.0138
; #@! TA.AperFunction,Plated,PTH,ComponentDrill
T3C0.0138
; #@! TA.AperFunction,Plated,PTH,ComponentDrill
T4C0.0236
; #@! TA.AperFunction,Plated,PTH,ComponentDrill
T5C0.0394
%
G90
G05
T1
X8.4106Y-1.5548
X8.4106Y-1.5981
X8.6443Y-1.8411
X8.6876Y-1.8411
T2
X8.1148Y-2.2591
X8.1542Y-2.9635
X8.1547Y-1.9382
X8.1575Y-3.1193
X8.1951Y-3.1861
X8.2134Y-2.7289
X8.2295Y-2.2362
X8.2295Y-2.2929
X8.2746Y-2.836
X8.2756Y-1.5461
X8.2776Y-3.1992
X8.2882Y-4.4909
X8.3035Y-4.2236
X8.3039Y-1.848
X8.3067Y-2.3874
X8.3272Y-2.4902
X8.3378Y-1.6243
X8.3442Y-2.896
X8.3551Y-2.8606
X8.4039Y-2.6417
X8.4071Y-3.2768
X8.4106Y-1.5135
X8.4165Y-4.3823
X8.4197Y-3.2256
X8.4201Y-2.8358
X8.4354Y-3.3043
X8.452Y-1.7504
X8.463Y-3.1791
X8.4646Y-3.3295
X8.4673Y-2.1709
X8.4823Y-2.5236
X8.4862Y-2.9934
X8.5051Y-2.6421
X8.5106Y-2.6917
X8.5134Y-3.3657
X8.5303Y-2.5563
X8.535Y-4.2354
X8.5547Y-4.4512
X8.5583Y-3.4508
X8.5628Y-3.0449
X8.5705Y-3.3228
X8.6016Y-1.8248
X8.615Y-2.561
X8.6207Y-2.8074
X8.624Y-3.278
X8.6354Y-4.3618
X8.6374Y-3.0717
X8.65Y-1.6248
X8.6555Y-1.8957
X8.6567Y-2.026
X8.6622Y-3.2343
X8.6724Y-2.8067
X8.6858Y-2.6409
X8.6972Y-1.9862
X8.7003Y-3.0678
X8.7024Y-2.0587
X8.7024Y-3.1937
X8.7035Y-1.6996
X8.7054Y-1.7603
X8.7091Y-1.622
X8.7161Y-2.1354
X8.7307Y-2.3465
X8.7339Y-3.4465
X8.7354Y-2.5205
X8.7429Y-1.7386
T3
X8.3401Y-2.9503
X8.3755Y-2.9148
X8.3755Y-2.9858
X8.411Y-2.8793
X8.411Y-2.9503
X8.411Y-3.0212
X8.4465Y-2.9148
X8.4465Y-2.9858
X8.482Y-2.9503
T5
X8.2Y-1.4994
X8.2Y-1.5994
X8.2Y-4.8
X8.2Y-4.9
X8.5Y-4.7
X8.5Y-4.9
X8.6Y-4.7
X8.6Y-4.9
X8.8Y-1.5
X8.8Y-1.6
X8.8Y-1.7
X8.8Y-1.8
X8.8Y-1.9
X8.8Y-2.0
X8.8Y-2.1
X8.8Y-2.2
X8.8Y-2.3
X8.8Y-2.4
X8.8Y-2.5
X8.8Y-2.6
X8.8Y-2.7
X8.8Y-2.8
X8.8Y-2.9
X8.8Y-3.0
X8.8Y-3.1
X8.8Y-3.2
X8.8Y-3.3
X8.8Y-3.4
X8.8Y-3.5
X8.8Y-3.6
X8.8Y-3.7
X8.8Y-3.8
X8.8Y-3.9
X8.8Y-4.0
X8.8Y-4.1
X8.8Y-4.2
X8.8Y-4.3
X8.8Y-4.4
X8.8Y-4.5
X8.8Y-4.6
X8.8Y-4.7
X8.8Y-4.8
X8.8Y-4.9
T4
G00X8.227Y-1.7108
M15
G01X8.2033Y-1.7108
M16
G05
G00X8.227Y-2.0514
M15
G01X8.2033Y-2.0514
M16
G05
G00X8.3982Y-1.7108
M15
G01X8.3628Y-1.7108
M16
G05
G00X8.3982Y-2.0514
M15
G01X8.3628Y-2.0514
M16
G05
M30
