%TF.GenerationSoftware,KiCad,Pcbnew,8.0.3*%
%TF.CreationDate,2024-07-23T11:53:19+01:00*%
%TF.ProjectId,ELI2040,454c4932-3034-4302-9e6b-696361645f70,rev?*%
%TF.SameCoordinates,Original*%
%TF.FileFunction,Copper,L2,Bot*%
%TF.FilePolarity,Positive*%
%FSLAX46Y46*%
G04 Gerber Fmt 4.6, Leading zero omitted, Abs format (unit mm)*
G04 Created by KiCad (PCBNEW 8.0.3) date 2024-07-23 11:53:19*
%MOMM*%
%LPD*%
G01*
G04 APERTURE LIST*
%TA.AperFunction,ComponentPad*%
%ADD10R,1.700000X1.700000*%
%TD*%
%TA.AperFunction,ComponentPad*%
%ADD11O,1.700000X1.700000*%
%TD*%
%TA.AperFunction,ComponentPad*%
%ADD12C,0.600000*%
%TD*%
%TA.AperFunction,ComponentPad*%
%ADD13C,0.500000*%
%TD*%
%TA.AperFunction,SMDPad,CuDef*%
%ADD14R,1.600000X0.500000*%
%TD*%
%TA.AperFunction,ComponentPad*%
%ADD15O,2.000000X1.100000*%
%TD*%
%TA.AperFunction,ComponentPad*%
%ADD16O,1.800000X1.200000*%
%TD*%
%TA.AperFunction,SMDPad,CuDef*%
%ADD17R,0.500000X1.600000*%
%TD*%
%TA.AperFunction,ViaPad*%
%ADD18C,0.600000*%
%TD*%
%TA.AperFunction,Conductor*%
%ADD19C,0.300000*%
%TD*%
%TA.AperFunction,Conductor*%
%ADD20C,1.000000*%
%TD*%
%TA.AperFunction,Conductor*%
%ADD21C,0.500000*%
%TD*%
%TA.AperFunction,Conductor*%
%ADD22C,0.150000*%
%TD*%
G04 APERTURE END LIST*
D10*
%TO.P,J3,1,Pin_1*%
%TO.N,/+3V3_SIG*%
X223520000Y-43180000D03*
D11*
%TO.P,J3,2,Pin_2*%
%TO.N,GND*%
X223520000Y-45720000D03*
%TO.P,J3,3,Pin_3*%
%TO.N,/GPIO29_ADC3*%
X223520000Y-48260000D03*
%TO.P,J3,4,Pin_4*%
%TO.N,/GPIO28_ADC2*%
X223520000Y-50800000D03*
%TO.P,J3,5,Pin_5*%
%TO.N,/GPIO27_ADC1*%
X223520000Y-53340000D03*
%TO.P,J3,6,Pin_6*%
%TO.N,/GPIO26_ADC0*%
X223520000Y-55880000D03*
%TD*%
D10*
%TO.P,J1,1,Pin_1*%
%TO.N,GND*%
X208280000Y-121920000D03*
D11*
%TO.P,J1,2,Pin_2*%
X208280000Y-124460000D03*
%TD*%
D12*
%TO.P,U7,57,GND*%
%TO.N,GND*%
X211837401Y-74936509D03*
X212738962Y-75838070D03*
X213640523Y-76739631D03*
X212738962Y-74034948D03*
X213640523Y-74936509D03*
X214542084Y-75838070D03*
X213640523Y-73133387D03*
X214542084Y-74034948D03*
X215443645Y-74936509D03*
%TD*%
D10*
%TO.P,J8,1,Pin_1*%
%TO.N,/GPIO1_SCL*%
X215900000Y-119380000D03*
D11*
%TO.P,J8,2,Pin_2*%
%TO.N,/GPIO4_SDA*%
X218440000Y-119380000D03*
%TD*%
D13*
%TO.P,U4,7,PAD*%
%TO.N,GND*%
X219565000Y-46765000D03*
D14*
X220115000Y-46765000D03*
D13*
X220665000Y-46765000D03*
%TD*%
D10*
%TO.P,J5,1,Pin_1*%
%TO.N,GND*%
X208280000Y-38085000D03*
D11*
%TO.P,J5,2,Pin_2*%
X208280000Y-40625000D03*
%TD*%
D10*
%TO.P,J2,1,Pin_1*%
%TO.N,GND*%
X223520000Y-38100000D03*
D11*
%TO.P,J2,2,Pin_2*%
%TO.N,12V_IN*%
X223520000Y-40640000D03*
%TD*%
D10*
%TO.P,J4,1,Pin_1*%
%TO.N,GND*%
X223520000Y-124460000D03*
D11*
%TO.P,J4,2,Pin_2*%
%TO.N,+3V3*%
X223520000Y-121920000D03*
%TO.P,J4,3,Pin_3*%
%TO.N,/GPIO0*%
X223520000Y-119380001D03*
%TO.P,J4,4,Pin_4*%
%TO.N,/GPIO2*%
X223520000Y-116840000D03*
%TO.P,J4,5,Pin_5*%
%TO.N,/GPIO3*%
X223520000Y-114300000D03*
%TO.P,J4,6,Pin_6*%
%TO.N,/GPIO5*%
X223520000Y-111760000D03*
%TO.P,J4,7,Pin_7*%
%TO.N,/GPIO6*%
X223520000Y-109220000D03*
%TO.P,J4,8,Pin_8*%
%TO.N,/GPIO7*%
X223520000Y-106679999D03*
%TO.P,J4,9,Pin_9*%
%TO.N,/GPIO8*%
X223520000Y-104140000D03*
%TO.P,J4,10,Pin_10*%
%TO.N,/GPIO9*%
X223520000Y-101600000D03*
%TO.P,J4,11,Pin_11*%
%TO.N,/GPIO10*%
X223520000Y-99060000D03*
%TO.P,J4,12,Pin_12*%
%TO.N,/GPIO11*%
X223520000Y-96520001D03*
%TO.P,J4,13,Pin_13*%
%TO.N,/GPIO12*%
X223520000Y-93980000D03*
%TO.P,J4,14,Pin_14*%
%TO.N,/GPIO13*%
X223520000Y-91440000D03*
%TO.P,J4,15,Pin_15*%
%TO.N,/GPIO14*%
X223520000Y-88900000D03*
%TO.P,J4,16,Pin_16*%
%TO.N,/GPIO15*%
X223520000Y-86360001D03*
%TO.P,J4,17,Pin_17*%
%TO.N,/GPIO16*%
X223520000Y-83819999D03*
%TO.P,J4,18,Pin_18*%
%TO.N,/GPIO17*%
X223520000Y-81280000D03*
%TO.P,J4,19,Pin_19*%
%TO.N,/GPIO18*%
X223520000Y-78740000D03*
%TO.P,J4,20,Pin_20*%
%TO.N,/GPIO19*%
X223520000Y-76200000D03*
%TO.P,J4,21,Pin_21*%
%TO.N,/GPIO20*%
X223520000Y-73660001D03*
%TO.P,J4,22,Pin_22*%
%TO.N,/GPIO21*%
X223520000Y-71120000D03*
%TO.P,J4,23,Pin_23*%
%TO.N,/GPIO23*%
X223520000Y-68580000D03*
%TO.P,J4,24,Pin_24*%
%TO.N,/GPIO24*%
X223520000Y-66040000D03*
%TO.P,J4,25,Pin_25*%
%TO.N,/GPIO25*%
X223520000Y-63500001D03*
%TO.P,J4,26,Pin_26*%
%TO.N,/BOOTSEL*%
X223520000Y-60959999D03*
%TO.P,J4,27,Pin_27*%
%TO.N,/RUN*%
X223520000Y-58420000D03*
%TD*%
D15*
%TO.P,USB2,13,SHELL*%
%TO.N,GND*%
X212865000Y-43455000D03*
D16*
X208665000Y-43455000D03*
D15*
%TO.P,USB2,14,SHELL*%
X212865000Y-52105000D03*
D16*
X208665000Y-52105000D03*
%TD*%
D10*
%TO.P,J7,1,Pin_1*%
%TO.N,/GPIO1_SCL*%
X215900000Y-124460000D03*
D11*
%TO.P,J7,2,Pin_2*%
%TO.N,/GPIO4_SDA*%
X218440000Y-124460000D03*
%TD*%
D13*
%TO.P,U1,7,PAD*%
%TO.N,GND*%
X213630000Y-40592500D03*
D17*
X213630000Y-40042500D03*
D13*
X213630000Y-39492500D03*
%TD*%
D18*
%TO.N,GND*%
X209030000Y-56800000D03*
X214680000Y-44460000D03*
X216240000Y-85490000D03*
X213460000Y-67100000D03*
X214260000Y-83930000D03*
X221210000Y-41200000D03*
X207130000Y-49230000D03*
X210520000Y-114070000D03*
X216670000Y-64930000D03*
X218480000Y-46350000D03*
X217380000Y-87650000D03*
X217690000Y-84400000D03*
X221390000Y-54240000D03*
X210990000Y-60640000D03*
X213540000Y-83230000D03*
X218967045Y-71307045D03*
X221040000Y-81120000D03*
X220910000Y-50450000D03*
X219340000Y-110790000D03*
X216170000Y-68370000D03*
X217290000Y-113060000D03*
X219050000Y-83260000D03*
X215000000Y-84570000D03*
X220020000Y-82150000D03*
X207117462Y-75272384D03*
X211781035Y-41257519D03*
X213860000Y-81930000D03*
X210250000Y-81260000D03*
X216030000Y-67110000D03*
X215450000Y-64100000D03*
X218820000Y-65050000D03*
X215070000Y-55140000D03*
X219880000Y-51460000D03*
X213630000Y-38442500D03*
X221040000Y-52290000D03*
X210920000Y-46940000D03*
X220620000Y-67080000D03*
X219390000Y-78020000D03*
X208620064Y-69315010D03*
X214960000Y-80750000D03*
X211512038Y-63252038D03*
X221880000Y-64020000D03*
X210910000Y-107280000D03*
%TO.N,+12V*%
X221070000Y-43170000D03*
X221117070Y-44710454D03*
X219710000Y-41270000D03*
X210200000Y-39270000D03*
%TO.N,+3V3*%
X206115000Y-57380000D03*
X213870000Y-72030000D03*
X212220000Y-72660000D03*
%TO.N,/+3V3_SIG*%
X222070000Y-44160000D03*
X219850000Y-48150000D03*
%TO.N,+1V1*%
X215549710Y-76032525D03*
X217494254Y-77340673D03*
X210175699Y-72033967D03*
X211943466Y-73557651D03*
%TO.N,/GPIO4_SDA*%
X208155000Y-80927461D03*
%TO.N,/GPIO1_SCL*%
X207200000Y-79230000D03*
%TO.N,/BOOTSEL*%
X209030000Y-58240000D03*
X221760000Y-59600000D03*
X213780000Y-111310000D03*
%TO.N,/GPIO22_TEST_LED*%
X220280000Y-71290000D03*
X221840000Y-87540000D03*
%TO.N,/RUN*%
X216790000Y-107580000D03*
X220986636Y-77923364D03*
%TD*%
D19*
%TO.N,+12V*%
X221070000Y-43170000D02*
X221070000Y-44663384D01*
X221070000Y-44663384D02*
X221117070Y-44710454D01*
D20*
X219710000Y-41270000D02*
X215932500Y-37492500D01*
X211977500Y-37492500D02*
X210200000Y-39270000D01*
X215932500Y-37492500D02*
X211977500Y-37492500D01*
D19*
%TO.N,+3V3*%
X213740000Y-72160000D02*
X213870000Y-72030000D01*
D21*
X206510000Y-125710000D02*
X219770000Y-125710000D01*
X206115000Y-125315000D02*
X206510000Y-125710000D01*
X223520000Y-121960000D02*
X223520000Y-121920000D01*
D19*
X212220000Y-72660000D02*
X212720000Y-72160000D01*
D21*
X219770000Y-125710000D02*
X223520000Y-121960000D01*
X206115000Y-57380000D02*
X206115000Y-125315000D01*
D19*
X212720000Y-72160000D02*
X213740000Y-72160000D01*
D21*
%TO.N,/+3V3_SIG*%
X222070000Y-46660000D02*
X220580000Y-48150000D01*
X220580000Y-48150000D02*
X219850000Y-48150000D01*
X222070000Y-44160000D02*
X222070000Y-46660000D01*
D19*
%TO.N,+1V1*%
X210458541Y-72072727D02*
X211943466Y-73557651D01*
X215549710Y-76032525D02*
X216963925Y-77446738D01*
X216963925Y-77446738D02*
X217600321Y-77446739D01*
D22*
X210214458Y-72072727D02*
X210458541Y-72072727D01*
X210175699Y-72033967D02*
X210214458Y-72072727D01*
%TO.N,/GPIO4_SDA*%
X214825000Y-120565000D02*
X217255000Y-120565000D01*
X215600000Y-117600000D02*
X214825000Y-118375000D01*
X215600000Y-88372461D02*
X215600000Y-117600000D01*
X217255000Y-120565000D02*
X218440000Y-119380000D01*
X208155000Y-80927461D02*
X215600000Y-88372461D01*
X214825000Y-118375000D02*
X214825000Y-120565000D01*
%TO.N,/GPIO1_SCL*%
X215900000Y-87930000D02*
X215900000Y-119380000D01*
X207200000Y-79230000D02*
X215900000Y-87930000D01*
%TO.N,/BOOTSEL*%
X206610000Y-79077537D02*
X206610000Y-104140000D01*
X209030000Y-58240000D02*
X207725000Y-59545000D01*
X206610000Y-104140000D02*
X213780000Y-111310000D01*
X209030000Y-58240000D02*
X220800001Y-58240000D01*
X207725000Y-77962537D02*
X206610000Y-79077537D01*
X221760000Y-59199999D02*
X221760000Y-59600000D01*
X220800001Y-58240000D02*
X221760000Y-59199999D01*
X207725000Y-59545000D02*
X207725000Y-77962537D01*
%TO.N,/GPIO22_TEST_LED*%
X220280000Y-77670000D02*
X220461636Y-77851636D01*
X220280000Y-71290000D02*
X220280000Y-77670000D01*
X220461636Y-77851636D02*
X220461636Y-78425900D01*
X221840000Y-79804264D02*
X221840000Y-87540000D01*
X220461636Y-78425900D02*
X221840000Y-79804264D01*
%TO.N,/RUN*%
X221586636Y-78523364D02*
X222835000Y-77275000D01*
X222365000Y-79905000D02*
X222365000Y-87757463D01*
X221586636Y-78523364D02*
X221790000Y-78726728D01*
X224145000Y-77275000D02*
X224595000Y-76825000D01*
X222365000Y-87757463D02*
X220410000Y-89712463D01*
X220410000Y-103960000D02*
X216790000Y-107580000D01*
X221790000Y-78726728D02*
X221790000Y-79330000D01*
X220986636Y-77923364D02*
X221586636Y-78523364D01*
X222835000Y-77275000D02*
X224145000Y-77275000D01*
X220410000Y-89712463D02*
X220410000Y-103960000D01*
X221790000Y-79330000D02*
X222365000Y-79905000D01*
X224595000Y-76825000D02*
X224595000Y-59495000D01*
X224595000Y-59495000D02*
X223520000Y-58420000D01*
%TD*%
%TA.AperFunction,Conductor*%
%TO.N,GND*%
G36*
X225124500Y-42239428D02*
G01*
X225124500Y-56507516D01*
X223965258Y-56776459D01*
X224078538Y-56715910D01*
X224230883Y-56590883D01*
X224355910Y-56438538D01*
X224448814Y-56264727D01*
X224506024Y-56076132D01*
X224525341Y-55880000D01*
X224506024Y-55683868D01*
X224448814Y-55495273D01*
X224448811Y-55495269D01*
X224448811Y-55495266D01*
X224355913Y-55321467D01*
X224355909Y-55321460D01*
X224230883Y-55169116D01*
X224078539Y-55044090D01*
X224078532Y-55044086D01*
X223904733Y-54951188D01*
X223904727Y-54951186D01*
X223716132Y-54893976D01*
X223716129Y-54893975D01*
X223520000Y-54874659D01*
X223323870Y-54893975D01*
X223135266Y-54951188D01*
X222961467Y-55044086D01*
X222961460Y-55044090D01*
X222809116Y-55169116D01*
X222684090Y-55321460D01*
X222684086Y-55321467D01*
X222591188Y-55495266D01*
X222533975Y-55683870D01*
X222514659Y-55880000D01*
X222533975Y-56076129D01*
X222591188Y-56264733D01*
X222684086Y-56438532D01*
X222684090Y-56438539D01*
X222809116Y-56590883D01*
X222961460Y-56715909D01*
X222961467Y-56715913D01*
X223135266Y-56808811D01*
X223135269Y-56808811D01*
X223135273Y-56808814D01*
X223323868Y-56866024D01*
X223503110Y-56883677D01*
X222700000Y-57070000D01*
X222010000Y-57120000D01*
X222500000Y-59580000D01*
X222525845Y-60846416D01*
X222514659Y-60959999D01*
X222531693Y-61132957D01*
X222560000Y-62520000D01*
X222579410Y-63154090D01*
X222533975Y-63303871D01*
X222514659Y-63500001D01*
X222533975Y-63696130D01*
X222591188Y-63884734D01*
X222602420Y-63905749D01*
X222620000Y-64480000D01*
X221240000Y-67230000D01*
X216880000Y-67810000D01*
X216490000Y-66600000D01*
X218090000Y-63670000D01*
X218440000Y-63040000D01*
X218443695Y-58465500D01*
X220655234Y-58465500D01*
X220722273Y-58485185D01*
X220742915Y-58501819D01*
X221396648Y-59155552D01*
X221430133Y-59216875D01*
X221425149Y-59286567D01*
X221402681Y-59324434D01*
X221377120Y-59353932D01*
X221377117Y-59353938D01*
X221323302Y-59471774D01*
X221304867Y-59600000D01*
X221323302Y-59728225D01*
X221377117Y-59846061D01*
X221377118Y-59846063D01*
X221461951Y-59943967D01*
X221570931Y-60014004D01*
X221629446Y-60031185D01*
X221695225Y-60050499D01*
X221695227Y-60050500D01*
X221695228Y-60050500D01*
X221824773Y-60050500D01*
X221824773Y-60050499D01*
X221949069Y-60014004D01*
X222058049Y-59943967D01*
X222142882Y-59846063D01*
X222196697Y-59728226D01*
X222215133Y-59600000D01*
X222196697Y-59471774D01*
X222142882Y-59353937D01*
X222058049Y-59256033D01*
X222058048Y-59256032D01*
X222042178Y-59245833D01*
X221996425Y-59193028D01*
X221987602Y-59165709D01*
X221985501Y-59155149D01*
X221985501Y-59155145D01*
X221965390Y-59106594D01*
X221951170Y-59072263D01*
X221887736Y-59008829D01*
X221880671Y-59001764D01*
X221880664Y-59001758D01*
X221008612Y-58129706D01*
X221008610Y-58129703D01*
X220927735Y-58048828D01*
X220895009Y-58035274D01*
X220895005Y-58035272D01*
X220844858Y-58014499D01*
X220844856Y-58014499D01*
X220755146Y-58014499D01*
X220740712Y-58014499D01*
X220740704Y-58014500D01*
X218444059Y-58014500D01*
X218447835Y-53340000D01*
X222514659Y-53340000D01*
X222533975Y-53536129D01*
X222591188Y-53724733D01*
X222684086Y-53898532D01*
X222684090Y-53898539D01*
X222809116Y-54050883D01*
X222961460Y-54175909D01*
X222961467Y-54175913D01*
X223135266Y-54268811D01*
X223135269Y-54268811D01*
X223135273Y-54268814D01*
X223323868Y-54326024D01*
X223520000Y-54345341D01*
X223716132Y-54326024D01*
X223904727Y-54268814D01*
X224078538Y-54175910D01*
X224230883Y-54050883D01*
X224355910Y-53898538D01*
X224448814Y-53724727D01*
X224506024Y-53536132D01*
X224525341Y-53340000D01*
X224506024Y-53143868D01*
X224448814Y-52955273D01*
X224448811Y-52955269D01*
X224448811Y-52955266D01*
X224355913Y-52781467D01*
X224355909Y-52781460D01*
X224230883Y-52629116D01*
X224078539Y-52504090D01*
X224078532Y-52504086D01*
X223904733Y-52411188D01*
X223904727Y-52411186D01*
X223716132Y-52353976D01*
X223716129Y-52353975D01*
X223520000Y-52334659D01*
X223323870Y-52353975D01*
X223135266Y-52411188D01*
X222961467Y-52504086D01*
X222961460Y-52504090D01*
X222809116Y-52629116D01*
X222684090Y-52781460D01*
X222684086Y-52781467D01*
X222591188Y-52955266D01*
X222533975Y-53143870D01*
X222514659Y-53340000D01*
X218447835Y-53340000D01*
X218449887Y-50800000D01*
X222514659Y-50800000D01*
X222533975Y-50996129D01*
X222591188Y-51184733D01*
X222684086Y-51358532D01*
X222684090Y-51358539D01*
X222809116Y-51510883D01*
X222961460Y-51635909D01*
X222961467Y-51635913D01*
X223135266Y-51728811D01*
X223135269Y-51728811D01*
X223135273Y-51728814D01*
X223323868Y-51786024D01*
X223520000Y-51805341D01*
X223716132Y-51786024D01*
X223904727Y-51728814D01*
X224078538Y-51635910D01*
X224230883Y-51510883D01*
X224355910Y-51358538D01*
X224448814Y-51184727D01*
X224506024Y-50996132D01*
X224525341Y-50800000D01*
X224506024Y-50603868D01*
X224448814Y-50415273D01*
X224448811Y-50415269D01*
X224448811Y-50415266D01*
X224355913Y-50241467D01*
X224355909Y-50241460D01*
X224230883Y-50089116D01*
X224078539Y-49964090D01*
X224078532Y-49964086D01*
X223904733Y-49871188D01*
X223904727Y-49871186D01*
X223716132Y-49813976D01*
X223716129Y-49813975D01*
X223520000Y-49794659D01*
X223323870Y-49813975D01*
X223135266Y-49871188D01*
X222961467Y-49964086D01*
X222961460Y-49964090D01*
X222809116Y-50089116D01*
X222684090Y-50241460D01*
X222684086Y-50241467D01*
X222591188Y-50415266D01*
X222533975Y-50603870D01*
X222514659Y-50800000D01*
X218449887Y-50800000D01*
X218450000Y-50660000D01*
X218110000Y-48470000D01*
X218266364Y-48150000D01*
X219394867Y-48150000D01*
X219413302Y-48278225D01*
X219467117Y-48396061D01*
X219467118Y-48396063D01*
X219551951Y-48493967D01*
X219660931Y-48564004D01*
X219785225Y-48600499D01*
X219785227Y-48600500D01*
X219785228Y-48600500D01*
X219914773Y-48600500D01*
X219914773Y-48600499D01*
X220039069Y-48564004D01*
X220039073Y-48564000D01*
X220044106Y-48561704D01*
X220095614Y-48550500D01*
X220632725Y-48550500D01*
X220632727Y-48550500D01*
X220734588Y-48523207D01*
X220825913Y-48470480D01*
X222390480Y-46905913D01*
X222443207Y-46814588D01*
X222443207Y-46814585D01*
X222446315Y-46807084D01*
X222447670Y-46807645D01*
X222479377Y-46755609D01*
X222542220Y-46725071D01*
X222611597Y-46733355D01*
X222644141Y-46755379D01*
X222644772Y-46754628D01*
X222648912Y-46758101D01*
X222842421Y-46893600D01*
X223056507Y-46993429D01*
X223056516Y-46993433D01*
X223270107Y-47050664D01*
X223329768Y-47087029D01*
X223360297Y-47149876D01*
X223352002Y-47219251D01*
X223307517Y-47273129D01*
X223274010Y-47289099D01*
X223135271Y-47331186D01*
X222961467Y-47424086D01*
X222961460Y-47424090D01*
X222809116Y-47549116D01*
X222684090Y-47701460D01*
X222684086Y-47701467D01*
X222591188Y-47875266D01*
X222533975Y-48063870D01*
X222514659Y-48260000D01*
X222533975Y-48456129D01*
X222591188Y-48644733D01*
X222684086Y-48818532D01*
X222684090Y-48818539D01*
X222809116Y-48970883D01*
X222961460Y-49095909D01*
X222961467Y-49095913D01*
X223135266Y-49188811D01*
X223135269Y-49188811D01*
X223135273Y-49188814D01*
X223323868Y-49246024D01*
X223520000Y-49265341D01*
X223716132Y-49246024D01*
X223904727Y-49188814D01*
X224078538Y-49095910D01*
X224230883Y-48970883D01*
X224355910Y-48818538D01*
X224448814Y-48644727D01*
X224506024Y-48456132D01*
X224525341Y-48260000D01*
X224506024Y-48063868D01*
X224448814Y-47875273D01*
X224448811Y-47875269D01*
X224448811Y-47875266D01*
X224355913Y-47701467D01*
X224355909Y-47701460D01*
X224230883Y-47549116D01*
X224078539Y-47424090D01*
X224078532Y-47424086D01*
X223904728Y-47331186D01*
X223765989Y-47289099D01*
X223707551Y-47250801D01*
X223679094Y-47186989D01*
X223689655Y-47117922D01*
X223735880Y-47065529D01*
X223769892Y-47050664D01*
X223983483Y-46993433D01*
X223983492Y-46993429D01*
X224197578Y-46893600D01*
X224391082Y-46758105D01*
X224558105Y-46591082D01*
X224693600Y-46397578D01*
X224793429Y-46183492D01*
X224793432Y-46183486D01*
X224850636Y-45970000D01*
X223953012Y-45970000D01*
X223985925Y-45912993D01*
X224020000Y-45785826D01*
X224020000Y-45654174D01*
X223985925Y-45527007D01*
X223953012Y-45470000D01*
X224850636Y-45470000D01*
X224850635Y-45469999D01*
X224793432Y-45256513D01*
X224793429Y-45256507D01*
X224693600Y-45042422D01*
X224693599Y-45042420D01*
X224558113Y-44848926D01*
X224558108Y-44848920D01*
X224391082Y-44681894D01*
X224197578Y-44546399D01*
X223983492Y-44446570D01*
X223983483Y-44446566D01*
X223900289Y-44424275D01*
X223840628Y-44387910D01*
X223810099Y-44325063D01*
X223818394Y-44255688D01*
X223862879Y-44201810D01*
X223929431Y-44180535D01*
X223932382Y-44180500D01*
X224384822Y-44180500D01*
X224428717Y-44171768D01*
X224428717Y-44171767D01*
X224428722Y-44171767D01*
X224478504Y-44138504D01*
X224511767Y-44088722D01*
X224520500Y-44044820D01*
X224520500Y-42315180D01*
X224520500Y-42315177D01*
X224511768Y-42271282D01*
X224511767Y-42271281D01*
X224511767Y-42271278D01*
X224478504Y-42221496D01*
X224478503Y-42221495D01*
X224428724Y-42188234D01*
X224428717Y-42188231D01*
X224384822Y-42179500D01*
X224384820Y-42179500D01*
X222655180Y-42179500D01*
X222655178Y-42179500D01*
X222611282Y-42188231D01*
X222611275Y-42188234D01*
X222561496Y-42221495D01*
X222561495Y-42221496D01*
X222528234Y-42271275D01*
X222528231Y-42271282D01*
X222519500Y-42315177D01*
X222519500Y-43686275D01*
X222499815Y-43753314D01*
X222447011Y-43799069D01*
X222377853Y-43809013D01*
X222328462Y-43790591D01*
X222259066Y-43745994D01*
X222134774Y-43709500D01*
X222134772Y-43709500D01*
X222005228Y-43709500D01*
X222005226Y-43709500D01*
X221880935Y-43745994D01*
X221880932Y-43745995D01*
X221880931Y-43745996D01*
X221829677Y-43778934D01*
X221771950Y-43816033D01*
X221687118Y-43913937D01*
X221687117Y-43913938D01*
X221633302Y-44031774D01*
X221617238Y-44143509D01*
X221588213Y-44207065D01*
X221529435Y-44244839D01*
X221459565Y-44244839D01*
X221400787Y-44207065D01*
X221371762Y-44143509D01*
X221370500Y-44125862D01*
X221370500Y-43557386D01*
X221390185Y-43490347D01*
X221400778Y-43476194D01*
X221452882Y-43416063D01*
X221506697Y-43298226D01*
X221525133Y-43170000D01*
X221506697Y-43041774D01*
X221452882Y-42923937D01*
X221368049Y-42826033D01*
X221259069Y-42755996D01*
X221259065Y-42755994D01*
X221259064Y-42755994D01*
X221134774Y-42719500D01*
X221134772Y-42719500D01*
X221005228Y-42719500D01*
X221005226Y-42719500D01*
X220880935Y-42755994D01*
X220880932Y-42755995D01*
X220880931Y-42755996D01*
X220829677Y-42788934D01*
X220771950Y-42826033D01*
X220687118Y-42923937D01*
X220687117Y-42923938D01*
X220633302Y-43041774D01*
X220614867Y-43170000D01*
X220633302Y-43298225D01*
X220687117Y-43416061D01*
X220687118Y-43416063D01*
X220739214Y-43476186D01*
X220768238Y-43539738D01*
X220769500Y-43557386D01*
X220769500Y-44377388D01*
X220749815Y-44444427D01*
X220739216Y-44458587D01*
X220734190Y-44464386D01*
X220734187Y-44464392D01*
X220680372Y-44582228D01*
X220661937Y-44710454D01*
X220680372Y-44838679D01*
X220685052Y-44848926D01*
X220734188Y-44956517D01*
X220819021Y-45054421D01*
X220928001Y-45124458D01*
X221052295Y-45160953D01*
X221052297Y-45160954D01*
X221052298Y-45160954D01*
X221181843Y-45160954D01*
X221181843Y-45160953D01*
X221306139Y-45124458D01*
X221415119Y-45054421D01*
X221451786Y-45012103D01*
X221510564Y-44974329D01*
X221580433Y-44974328D01*
X221639212Y-45012102D01*
X221668238Y-45075657D01*
X221669500Y-45093306D01*
X221669500Y-46442745D01*
X221649815Y-46509784D01*
X221633181Y-46530426D01*
X220450426Y-47713181D01*
X220389103Y-47746666D01*
X220362745Y-47749500D01*
X220095614Y-47749500D01*
X220044106Y-47738296D01*
X220039067Y-47735995D01*
X219914774Y-47699500D01*
X219914772Y-47699500D01*
X219785228Y-47699500D01*
X219785226Y-47699500D01*
X219660935Y-47735994D01*
X219660932Y-47735995D01*
X219660931Y-47735996D01*
X219609677Y-47768934D01*
X219551950Y-47806033D01*
X219467118Y-47903937D01*
X219467117Y-47903938D01*
X219413302Y-48021774D01*
X219394867Y-48150000D01*
X218266364Y-48150000D01*
X219400000Y-45830000D01*
X219350000Y-42920000D01*
X222740000Y-41400000D01*
X222831600Y-41369335D01*
X222961460Y-41475909D01*
X222961467Y-41475913D01*
X223135266Y-41568811D01*
X223135269Y-41568811D01*
X223135273Y-41568814D01*
X223323868Y-41626024D01*
X223520000Y-41645341D01*
X223716132Y-41626024D01*
X223904727Y-41568814D01*
X224078538Y-41475910D01*
X224230883Y-41350883D01*
X224355910Y-41198538D01*
X224448814Y-41024727D01*
X224506024Y-40836132D01*
X224508807Y-40807866D01*
X225070000Y-40620000D01*
X225124500Y-42239428D01*
G37*
%TD.AperFunction*%
%TD*%
%TA.AperFunction,Conductor*%
%TO.N,GND*%
G36*
X225124500Y-126210500D02*
G01*
X225104815Y-126277539D01*
X225052011Y-126323294D01*
X225000500Y-126334500D01*
X219928621Y-126334500D01*
X219861582Y-126314815D01*
X219815827Y-126262011D01*
X219805883Y-126192853D01*
X219834908Y-126129297D01*
X219893686Y-126091523D01*
X219896489Y-126090735D01*
X219924588Y-126083207D01*
X220015913Y-126030480D01*
X221958319Y-124088072D01*
X222019642Y-124054588D01*
X222089334Y-124059572D01*
X222145267Y-124101444D01*
X222169684Y-124166908D01*
X222170000Y-124175754D01*
X222170000Y-124210000D01*
X223086988Y-124210000D01*
X223054075Y-124267007D01*
X223020000Y-124394174D01*
X223020000Y-124525826D01*
X223054075Y-124652993D01*
X223086988Y-124710000D01*
X222170000Y-124710000D01*
X222170000Y-125357844D01*
X222176401Y-125417372D01*
X222176403Y-125417379D01*
X222226645Y-125552086D01*
X222226649Y-125552093D01*
X222312809Y-125667187D01*
X222312812Y-125667190D01*
X222427906Y-125753350D01*
X222427913Y-125753354D01*
X222562620Y-125803596D01*
X222562627Y-125803598D01*
X222622155Y-125809999D01*
X222622172Y-125810000D01*
X223270000Y-125810000D01*
X223270000Y-124893012D01*
X223327007Y-124925925D01*
X223454174Y-124960000D01*
X223585826Y-124960000D01*
X223712993Y-124925925D01*
X223770000Y-124893012D01*
X223770000Y-125810000D01*
X224417828Y-125810000D01*
X224417844Y-125809999D01*
X224477372Y-125803598D01*
X224477379Y-125803596D01*
X224612086Y-125753354D01*
X224612093Y-125753350D01*
X224727187Y-125667190D01*
X224727190Y-125667187D01*
X224813350Y-125552093D01*
X224813354Y-125552086D01*
X224863596Y-125417379D01*
X224863598Y-125417372D01*
X224869999Y-125357844D01*
X224870000Y-125357827D01*
X224870000Y-124710000D01*
X223953012Y-124710000D01*
X223985925Y-124652993D01*
X224020000Y-124525826D01*
X224020000Y-124394174D01*
X223985925Y-124267007D01*
X223953012Y-124210000D01*
X224870000Y-124210000D01*
X224870000Y-123562172D01*
X224869999Y-123562155D01*
X224863598Y-123502627D01*
X224863596Y-123502620D01*
X224813354Y-123367913D01*
X224813350Y-123367906D01*
X224727190Y-123252812D01*
X224727187Y-123252809D01*
X224612093Y-123166649D01*
X224612086Y-123166645D01*
X224477379Y-123116403D01*
X224477372Y-123116401D01*
X224417844Y-123110000D01*
X223879652Y-123110000D01*
X223812613Y-123090315D01*
X223766858Y-123037511D01*
X223756914Y-122968353D01*
X223785939Y-122904797D01*
X223843655Y-122867339D01*
X223904727Y-122848814D01*
X224078538Y-122755910D01*
X224230883Y-122630883D01*
X224355910Y-122478538D01*
X224413467Y-122370856D01*
X224448811Y-122304733D01*
X224448811Y-122304732D01*
X224448814Y-122304727D01*
X224506024Y-122116132D01*
X224525341Y-121920000D01*
X224506024Y-121723868D01*
X224448814Y-121535273D01*
X224448811Y-121535269D01*
X224448811Y-121535266D01*
X224355913Y-121361467D01*
X224355909Y-121361460D01*
X224230883Y-121209116D01*
X224078539Y-121084090D01*
X224078532Y-121084086D01*
X223904733Y-120991188D01*
X223904727Y-120991186D01*
X223716132Y-120933976D01*
X223716129Y-120933975D01*
X223520000Y-120914659D01*
X223323870Y-120933975D01*
X223135266Y-120991188D01*
X222961467Y-121084086D01*
X222961460Y-121084090D01*
X222809116Y-121209116D01*
X222684090Y-121361460D01*
X222684086Y-121361467D01*
X222591188Y-121535266D01*
X222533975Y-121723870D01*
X222514659Y-121920000D01*
X222533975Y-122116130D01*
X222573729Y-122247180D01*
X222574352Y-122317047D01*
X222542749Y-122370856D01*
X219640426Y-125273181D01*
X219579103Y-125306666D01*
X219552745Y-125309500D01*
X219299300Y-125309500D01*
X219232261Y-125289815D01*
X219186506Y-125237011D01*
X219176562Y-125167853D01*
X219203447Y-125106835D01*
X219275909Y-125018539D01*
X219275913Y-125018532D01*
X219368811Y-124844733D01*
X219368811Y-124844732D01*
X219368814Y-124844727D01*
X219426024Y-124656132D01*
X219445341Y-124460000D01*
X219426024Y-124263868D01*
X219368814Y-124075273D01*
X219368811Y-124075269D01*
X219368811Y-124075266D01*
X219275913Y-123901467D01*
X219275909Y-123901460D01*
X219150883Y-123749116D01*
X218998539Y-123624090D01*
X218998532Y-123624086D01*
X218824733Y-123531188D01*
X218824727Y-123531186D01*
X218636132Y-123473976D01*
X218636129Y-123473975D01*
X218440000Y-123454659D01*
X218243870Y-123473975D01*
X218055266Y-123531188D01*
X217881467Y-123624086D01*
X217881460Y-123624090D01*
X217729116Y-123749116D01*
X217604090Y-123901460D01*
X217604086Y-123901467D01*
X217511188Y-124075266D01*
X217453975Y-124263870D01*
X217434659Y-124460000D01*
X217453975Y-124656129D01*
X217511188Y-124844733D01*
X217604086Y-125018532D01*
X217604090Y-125018539D01*
X217676553Y-125106835D01*
X217703866Y-125171145D01*
X217692075Y-125240013D01*
X217644923Y-125291573D01*
X217580700Y-125309500D01*
X217024500Y-125309500D01*
X216957461Y-125289815D01*
X216911706Y-125237011D01*
X216900500Y-125185500D01*
X216900500Y-123595177D01*
X216891768Y-123551282D01*
X216891767Y-123551281D01*
X216891767Y-123551278D01*
X216858504Y-123501496D01*
X216858503Y-123501495D01*
X216808724Y-123468234D01*
X216808717Y-123468231D01*
X216764822Y-123459500D01*
X216764820Y-123459500D01*
X215035180Y-123459500D01*
X215035178Y-123459500D01*
X214991282Y-123468231D01*
X214991275Y-123468234D01*
X214941496Y-123501495D01*
X214941495Y-123501496D01*
X214908234Y-123551275D01*
X214908231Y-123551282D01*
X214899500Y-123595177D01*
X214899500Y-125185500D01*
X214879815Y-125252539D01*
X214827011Y-125298294D01*
X214775500Y-125309500D01*
X209568073Y-125309500D01*
X209501034Y-125289815D01*
X209455279Y-125237011D01*
X209445335Y-125167853D01*
X209455691Y-125133095D01*
X209553429Y-124923492D01*
X209553432Y-124923486D01*
X209610636Y-124710000D01*
X208713012Y-124710000D01*
X208745925Y-124652993D01*
X208780000Y-124525826D01*
X208780000Y-124394174D01*
X208745925Y-124267007D01*
X208713012Y-124210000D01*
X209610636Y-124210000D01*
X209610635Y-124209999D01*
X209553432Y-123996513D01*
X209553429Y-123996507D01*
X209453600Y-123782422D01*
X209453599Y-123782420D01*
X209318113Y-123588926D01*
X209318108Y-123588920D01*
X209195665Y-123466477D01*
X209162180Y-123405154D01*
X209167164Y-123335462D01*
X209209036Y-123279529D01*
X209240013Y-123262614D01*
X209372086Y-123213354D01*
X209372093Y-123213350D01*
X209487187Y-123127190D01*
X209487190Y-123127187D01*
X209573350Y-123012093D01*
X209573354Y-123012086D01*
X209623596Y-122877379D01*
X209623598Y-122877372D01*
X209629999Y-122817844D01*
X209630000Y-122817827D01*
X209630000Y-122170000D01*
X208713012Y-122170000D01*
X208745925Y-122112993D01*
X208780000Y-121985826D01*
X208780000Y-121854174D01*
X208745925Y-121727007D01*
X208713012Y-121670000D01*
X209630000Y-121670000D01*
X209630000Y-121022172D01*
X209629999Y-121022155D01*
X209623598Y-120962627D01*
X209623596Y-120962620D01*
X209573354Y-120827913D01*
X209573350Y-120827906D01*
X209487190Y-120712812D01*
X209487187Y-120712809D01*
X209372093Y-120626649D01*
X209372086Y-120626645D01*
X209237379Y-120576403D01*
X209237372Y-120576401D01*
X209177844Y-120570000D01*
X208530000Y-120570000D01*
X208530000Y-121486988D01*
X208472993Y-121454075D01*
X208345826Y-121420000D01*
X208214174Y-121420000D01*
X208087007Y-121454075D01*
X208030000Y-121486988D01*
X208030000Y-120570000D01*
X207382155Y-120570000D01*
X207322627Y-120576401D01*
X207322620Y-120576403D01*
X207187913Y-120626645D01*
X207187906Y-120626649D01*
X207072812Y-120712809D01*
X207072809Y-120712812D01*
X206986649Y-120827906D01*
X206986645Y-120827913D01*
X206936403Y-120962620D01*
X206936401Y-120962627D01*
X206930000Y-121022155D01*
X206930000Y-121670000D01*
X207846988Y-121670000D01*
X207814075Y-121727007D01*
X207780000Y-121854174D01*
X207780000Y-121985826D01*
X207814075Y-122112993D01*
X207846988Y-122170000D01*
X206930000Y-122170000D01*
X206930000Y-122817844D01*
X206936401Y-122877372D01*
X206936403Y-122877379D01*
X206986645Y-123012086D01*
X206986649Y-123012093D01*
X207072809Y-123127187D01*
X207072812Y-123127190D01*
X207187906Y-123213350D01*
X207187913Y-123213354D01*
X207319986Y-123262614D01*
X207375920Y-123304485D01*
X207400337Y-123369949D01*
X207385486Y-123438222D01*
X207364335Y-123466477D01*
X207241886Y-123588926D01*
X207106400Y-123782420D01*
X207106399Y-123782422D01*
X207006570Y-123996507D01*
X207006567Y-123996513D01*
X206949364Y-124209999D01*
X206949364Y-124210000D01*
X207846988Y-124210000D01*
X207814075Y-124267007D01*
X207780000Y-124394174D01*
X207780000Y-124525826D01*
X207814075Y-124652993D01*
X207846988Y-124710000D01*
X206949364Y-124710000D01*
X207006567Y-124923486D01*
X207006570Y-124923492D01*
X207104309Y-125133095D01*
X207114801Y-125202173D01*
X207086281Y-125265957D01*
X207027805Y-125304196D01*
X206991927Y-125309500D01*
X206727255Y-125309500D01*
X206660216Y-125289815D01*
X206639574Y-125273181D01*
X206551819Y-125185426D01*
X206518334Y-125124103D01*
X206515500Y-125097745D01*
X206515500Y-104663767D01*
X206535185Y-104596728D01*
X206587989Y-104550973D01*
X206657147Y-104541029D01*
X206720703Y-104570054D01*
X206727181Y-104576086D01*
X213298101Y-111147006D01*
X213331586Y-111208329D01*
X213333158Y-111252333D01*
X213324867Y-111309999D01*
X213343302Y-111438225D01*
X213397117Y-111556061D01*
X213397118Y-111556063D01*
X213481951Y-111653967D01*
X213590931Y-111724004D01*
X213715225Y-111760499D01*
X213715227Y-111760500D01*
X213715228Y-111760500D01*
X213844773Y-111760500D01*
X213844773Y-111760499D01*
X213969069Y-111724004D01*
X214078049Y-111653967D01*
X214162882Y-111556063D01*
X214216697Y-111438226D01*
X214235133Y-111310000D01*
X214216697Y-111181774D01*
X214162882Y-111063937D01*
X214078049Y-110966033D01*
X213969069Y-110895996D01*
X213969065Y-110895994D01*
X213969064Y-110895994D01*
X213844774Y-110859500D01*
X213844772Y-110859500D01*
X213715228Y-110859500D01*
X213706360Y-110859500D01*
X213706360Y-110857361D01*
X213649067Y-110849115D01*
X213612914Y-110824009D01*
X206871819Y-104082914D01*
X206838334Y-104021591D01*
X206835500Y-103995233D01*
X206835500Y-79756835D01*
X206855185Y-79689796D01*
X206907989Y-79644041D01*
X206977147Y-79634097D01*
X207002417Y-79641517D01*
X207002421Y-79641506D01*
X207135225Y-79680499D01*
X207135227Y-79680500D01*
X207273641Y-79680500D01*
X207273641Y-79682643D01*
X207330908Y-79690873D01*
X207367085Y-79715990D01*
X207978039Y-80326944D01*
X208011524Y-80388267D01*
X208006540Y-80457959D01*
X207964668Y-80513892D01*
X207957398Y-80518940D01*
X207856951Y-80583493D01*
X207772118Y-80681398D01*
X207772117Y-80681399D01*
X207718302Y-80799235D01*
X207699867Y-80927461D01*
X207718302Y-81055686D01*
X207772117Y-81173522D01*
X207772118Y-81173524D01*
X207856951Y-81271428D01*
X207965931Y-81341465D01*
X208090225Y-81377960D01*
X208090227Y-81377961D01*
X208228641Y-81377961D01*
X208228641Y-81380104D01*
X208285908Y-81388334D01*
X208322085Y-81413451D01*
X215338181Y-88429547D01*
X215371666Y-88490870D01*
X215374500Y-88517228D01*
X215374500Y-117455232D01*
X215354815Y-117522271D01*
X215338181Y-117542913D01*
X214633830Y-118247263D01*
X214633830Y-118247265D01*
X214599499Y-118330144D01*
X214599499Y-118434288D01*
X214599500Y-118434297D01*
X214599500Y-120609853D01*
X214599501Y-120609858D01*
X214633827Y-120692733D01*
X214697266Y-120756172D01*
X214761365Y-120782721D01*
X214780145Y-120790500D01*
X214869855Y-120790500D01*
X217195703Y-120790500D01*
X217195711Y-120790501D01*
X217210145Y-120790501D01*
X217299853Y-120790501D01*
X217299855Y-120790501D01*
X217358460Y-120766225D01*
X217382736Y-120756170D01*
X217446170Y-120692736D01*
X217446170Y-120692735D01*
X217463608Y-120675297D01*
X217463610Y-120675294D01*
X217843500Y-120295403D01*
X217904821Y-120261920D01*
X217974513Y-120266904D01*
X217989622Y-120273723D01*
X218055273Y-120308814D01*
X218243868Y-120366024D01*
X218440000Y-120385341D01*
X218636132Y-120366024D01*
X218824727Y-120308814D01*
X218849814Y-120295405D01*
X218971472Y-120230377D01*
X218998538Y-120215910D01*
X219150883Y-120090883D01*
X219275910Y-119938538D01*
X219368814Y-119764727D01*
X219426024Y-119576132D01*
X219445341Y-119380001D01*
X222514659Y-119380001D01*
X222533975Y-119576130D01*
X222591188Y-119764734D01*
X222684086Y-119938533D01*
X222684090Y-119938540D01*
X222809116Y-120090884D01*
X222961460Y-120215910D01*
X222961467Y-120215914D01*
X223135266Y-120308812D01*
X223135269Y-120308812D01*
X223135273Y-120308815D01*
X223323868Y-120366025D01*
X223520000Y-120385342D01*
X223716132Y-120366025D01*
X223904727Y-120308815D01*
X223904735Y-120308811D01*
X224078532Y-120215914D01*
X224078534Y-120215913D01*
X224078538Y-120215911D01*
X224230883Y-120090884D01*
X224355910Y-119938539D01*
X224448814Y-119764728D01*
X224506024Y-119576133D01*
X224525341Y-119380001D01*
X224506024Y-119183869D01*
X224448814Y-118995274D01*
X224448811Y-118995270D01*
X224448811Y-118995267D01*
X224355913Y-118821468D01*
X224355909Y-118821461D01*
X224230883Y-118669117D01*
X224078539Y-118544091D01*
X224078532Y-118544087D01*
X223904733Y-118451189D01*
X223904727Y-118451187D01*
X223716132Y-118393977D01*
X223716129Y-118393976D01*
X223520000Y-118374660D01*
X223323870Y-118393976D01*
X223135266Y-118451189D01*
X222961467Y-118544087D01*
X222961460Y-118544091D01*
X222809116Y-118669117D01*
X222684090Y-118821461D01*
X222684086Y-118821468D01*
X222591188Y-118995267D01*
X222533975Y-119183871D01*
X222514659Y-119380001D01*
X219445341Y-119380001D01*
X219445341Y-119380000D01*
X219426024Y-119183868D01*
X219368814Y-118995273D01*
X219368811Y-118995267D01*
X219368811Y-118995266D01*
X219275913Y-118821467D01*
X219275909Y-118821460D01*
X219150883Y-118669116D01*
X218998539Y-118544090D01*
X218998532Y-118544086D01*
X218824733Y-118451188D01*
X218824727Y-118451186D01*
X218698997Y-118413046D01*
X218636129Y-118393975D01*
X218440000Y-118374659D01*
X218243870Y-118393975D01*
X218055266Y-118451188D01*
X217881467Y-118544086D01*
X217881460Y-118544090D01*
X217729116Y-118669116D01*
X217604090Y-118821460D01*
X217604086Y-118821467D01*
X217511188Y-118995266D01*
X217453975Y-119183870D01*
X217434659Y-119380000D01*
X217453975Y-119576129D01*
X217453976Y-119576132D01*
X217511186Y-119764727D01*
X217511190Y-119764734D01*
X217546271Y-119830367D01*
X217560512Y-119898770D01*
X217535511Y-119964013D01*
X217524594Y-119976500D01*
X217197912Y-120303182D01*
X217136591Y-120336666D01*
X217110233Y-120339500D01*
X217024500Y-120339500D01*
X216957461Y-120319815D01*
X216911706Y-120267011D01*
X216900500Y-120215500D01*
X216900500Y-118515177D01*
X216891768Y-118471282D01*
X216891767Y-118471281D01*
X216891767Y-118471278D01*
X216858504Y-118421496D01*
X216858503Y-118421495D01*
X216808724Y-118388234D01*
X216808717Y-118388231D01*
X216764822Y-118379500D01*
X216764820Y-118379500D01*
X216249500Y-118379500D01*
X216182461Y-118359815D01*
X216136706Y-118307011D01*
X216125500Y-118255500D01*
X216125500Y-116840000D01*
X222514659Y-116840000D01*
X222533975Y-117036129D01*
X222591188Y-117224733D01*
X222684086Y-117398532D01*
X222684090Y-117398539D01*
X222809116Y-117550883D01*
X222961460Y-117675909D01*
X222961467Y-117675913D01*
X223135266Y-117768811D01*
X223135269Y-117768811D01*
X223135273Y-117768814D01*
X223323868Y-117826024D01*
X223520000Y-117845341D01*
X223716132Y-117826024D01*
X223904727Y-117768814D01*
X224078538Y-117675910D01*
X224230883Y-117550883D01*
X224355910Y-117398538D01*
X224448814Y-117224727D01*
X224506024Y-117036132D01*
X224525341Y-116840000D01*
X224506024Y-116643868D01*
X224448814Y-116455273D01*
X224448811Y-116455269D01*
X224448811Y-116455266D01*
X224355913Y-116281467D01*
X224355909Y-116281460D01*
X224230883Y-116129116D01*
X224078539Y-116004090D01*
X224078532Y-116004086D01*
X223904733Y-115911188D01*
X223904727Y-115911186D01*
X223716132Y-115853976D01*
X223716129Y-115853975D01*
X223520000Y-115834659D01*
X223323870Y-115853975D01*
X223135266Y-115911188D01*
X222961467Y-116004086D01*
X222961460Y-116004090D01*
X222809116Y-116129116D01*
X222684090Y-116281460D01*
X222684086Y-116281467D01*
X222591188Y-116455266D01*
X222533975Y-116643870D01*
X222514659Y-116840000D01*
X216125500Y-116840000D01*
X216125500Y-114300000D01*
X222514659Y-114300000D01*
X222533975Y-114496129D01*
X222591188Y-114684733D01*
X222684086Y-114858532D01*
X222684090Y-114858539D01*
X222809116Y-115010883D01*
X222961460Y-115135909D01*
X222961467Y-115135913D01*
X223135266Y-115228811D01*
X223135269Y-115228811D01*
X223135273Y-115228814D01*
X223323868Y-115286024D01*
X223520000Y-115305341D01*
X223716132Y-115286024D01*
X223904727Y-115228814D01*
X224078538Y-115135910D01*
X224230883Y-115010883D01*
X224355910Y-114858538D01*
X224448814Y-114684727D01*
X224506024Y-114496132D01*
X224525341Y-114300000D01*
X224506024Y-114103868D01*
X224448814Y-113915273D01*
X224448811Y-113915269D01*
X224448811Y-113915266D01*
X224355913Y-113741467D01*
X224355909Y-113741460D01*
X224230883Y-113589116D01*
X224078539Y-113464090D01*
X224078532Y-113464086D01*
X223904733Y-113371188D01*
X223904727Y-113371186D01*
X223716132Y-113313976D01*
X223716129Y-113313975D01*
X223520000Y-113294659D01*
X223323870Y-113313975D01*
X223135266Y-113371188D01*
X222961467Y-113464086D01*
X222961460Y-113464090D01*
X222809116Y-113589116D01*
X222684090Y-113741460D01*
X222684086Y-113741467D01*
X222591188Y-113915266D01*
X222533975Y-114103870D01*
X222514659Y-114300000D01*
X216125500Y-114300000D01*
X216125500Y-111760000D01*
X222514659Y-111760000D01*
X222533975Y-111956129D01*
X222591188Y-112144733D01*
X222684086Y-112318532D01*
X222684090Y-112318539D01*
X222809116Y-112470883D01*
X222961460Y-112595909D01*
X222961467Y-112595913D01*
X223135266Y-112688811D01*
X223135269Y-112688811D01*
X223135273Y-112688814D01*
X223323868Y-112746024D01*
X223520000Y-112765341D01*
X223716132Y-112746024D01*
X223904727Y-112688814D01*
X224078538Y-112595910D01*
X224230883Y-112470883D01*
X224355910Y-112318538D01*
X224448814Y-112144727D01*
X224506024Y-111956132D01*
X224525341Y-111760000D01*
X224506024Y-111563868D01*
X224448814Y-111375273D01*
X224448811Y-111375269D01*
X224448811Y-111375266D01*
X224355913Y-111201467D01*
X224355909Y-111201460D01*
X224230883Y-111049116D01*
X224078539Y-110924090D01*
X224078532Y-110924086D01*
X223904733Y-110831188D01*
X223904727Y-110831186D01*
X223716132Y-110773976D01*
X223716129Y-110773975D01*
X223520000Y-110754659D01*
X223323870Y-110773975D01*
X223135266Y-110831188D01*
X222961467Y-110924086D01*
X222961460Y-110924090D01*
X222809116Y-111049116D01*
X222684090Y-111201460D01*
X222684086Y-111201467D01*
X222591188Y-111375266D01*
X222533975Y-111563870D01*
X222514659Y-111760000D01*
X216125500Y-111760000D01*
X216125500Y-109220000D01*
X222514659Y-109220000D01*
X222533975Y-109416129D01*
X222591188Y-109604733D01*
X222684086Y-109778532D01*
X222684090Y-109778539D01*
X222809116Y-109930883D01*
X222961460Y-110055909D01*
X222961467Y-110055913D01*
X223135266Y-110148811D01*
X223135269Y-110148811D01*
X223135273Y-110148814D01*
X223323868Y-110206024D01*
X223520000Y-110225341D01*
X223716132Y-110206024D01*
X223904727Y-110148814D01*
X224078538Y-110055910D01*
X224230883Y-109930883D01*
X224355910Y-109778538D01*
X224448814Y-109604727D01*
X224506024Y-109416132D01*
X224525341Y-109220000D01*
X224506024Y-109023868D01*
X224448814Y-108835273D01*
X224448811Y-108835269D01*
X224448811Y-108835266D01*
X224355913Y-108661467D01*
X224355909Y-108661460D01*
X224230883Y-108509116D01*
X224078539Y-108384090D01*
X224078532Y-108384086D01*
X223904733Y-108291188D01*
X223904727Y-108291186D01*
X223716132Y-108233976D01*
X223716129Y-108233975D01*
X223520000Y-108214659D01*
X223323870Y-108233975D01*
X223135266Y-108291188D01*
X222961467Y-108384086D01*
X222961460Y-108384090D01*
X222809116Y-108509116D01*
X222684090Y-108661460D01*
X222684086Y-108661467D01*
X222591188Y-108835266D01*
X222533975Y-109023870D01*
X222514659Y-109220000D01*
X216125500Y-109220000D01*
X216125500Y-107779425D01*
X216145185Y-107712386D01*
X216197989Y-107666631D01*
X216267147Y-107656687D01*
X216330703Y-107685712D01*
X216362293Y-107727912D01*
X216407118Y-107826063D01*
X216491951Y-107923967D01*
X216600931Y-107994004D01*
X216725225Y-108030499D01*
X216725227Y-108030500D01*
X216725228Y-108030500D01*
X216854773Y-108030500D01*
X216854773Y-108030499D01*
X216979069Y-107994004D01*
X217088049Y-107923967D01*
X217172882Y-107826063D01*
X217226697Y-107708226D01*
X217245133Y-107580000D01*
X217236841Y-107522331D01*
X217246784Y-107453176D01*
X217271895Y-107417008D01*
X218008904Y-106679999D01*
X222514659Y-106679999D01*
X222533975Y-106876128D01*
X222591188Y-107064732D01*
X222684086Y-107238531D01*
X222684090Y-107238538D01*
X222809116Y-107390882D01*
X222961460Y-107515908D01*
X222961467Y-107515912D01*
X223135266Y-107608810D01*
X223135269Y-107608810D01*
X223135273Y-107608813D01*
X223323868Y-107666023D01*
X223520000Y-107685340D01*
X223716132Y-107666023D01*
X223904727Y-107608813D01*
X224078538Y-107515909D01*
X224230883Y-107390882D01*
X224355910Y-107238537D01*
X224448814Y-107064726D01*
X224506024Y-106876131D01*
X224525341Y-106679999D01*
X224506024Y-106483867D01*
X224448814Y-106295272D01*
X224448811Y-106295268D01*
X224448811Y-106295265D01*
X224355913Y-106121466D01*
X224355909Y-106121459D01*
X224230883Y-105969115D01*
X224078539Y-105844089D01*
X224078532Y-105844085D01*
X223904733Y-105751187D01*
X223904727Y-105751185D01*
X223716132Y-105693975D01*
X223716129Y-105693974D01*
X223520000Y-105674658D01*
X223323870Y-105693974D01*
X223135266Y-105751187D01*
X222961467Y-105844085D01*
X222961460Y-105844089D01*
X222809116Y-105969115D01*
X222684090Y-106121459D01*
X222684086Y-106121466D01*
X222591188Y-106295265D01*
X222533975Y-106483869D01*
X222514659Y-106679999D01*
X218008904Y-106679999D01*
X220520294Y-104168610D01*
X220520297Y-104168608D01*
X220537735Y-104151170D01*
X220537736Y-104151170D01*
X220548906Y-104140000D01*
X222514659Y-104140000D01*
X222533975Y-104336129D01*
X222591188Y-104524733D01*
X222684086Y-104698532D01*
X222684090Y-104698539D01*
X222809116Y-104850883D01*
X222961460Y-104975909D01*
X222961467Y-104975913D01*
X223135266Y-105068811D01*
X223135269Y-105068811D01*
X223135273Y-105068814D01*
X223323868Y-105126024D01*
X223520000Y-105145341D01*
X223716132Y-105126024D01*
X223904727Y-105068814D01*
X224078538Y-104975910D01*
X224230883Y-104850883D01*
X224355910Y-104698538D01*
X224434785Y-104550973D01*
X224448811Y-104524733D01*
X224448811Y-104524732D01*
X224448814Y-104524727D01*
X224506024Y-104336132D01*
X224525341Y-104140000D01*
X224506024Y-103943868D01*
X224448814Y-103755273D01*
X224448811Y-103755269D01*
X224448811Y-103755266D01*
X224355913Y-103581467D01*
X224355909Y-103581460D01*
X224230883Y-103429116D01*
X224078539Y-103304090D01*
X224078532Y-103304086D01*
X223904733Y-103211188D01*
X223904727Y-103211186D01*
X223716132Y-103153976D01*
X223716129Y-103153975D01*
X223520000Y-103134659D01*
X223323870Y-103153975D01*
X223135266Y-103211188D01*
X222961467Y-103304086D01*
X222961460Y-103304090D01*
X222809116Y-103429116D01*
X222684090Y-103581460D01*
X222684086Y-103581467D01*
X222591188Y-103755266D01*
X222533975Y-103943870D01*
X222514659Y-104140000D01*
X220548906Y-104140000D01*
X220601170Y-104087736D01*
X220611225Y-104063460D01*
X220635501Y-104004855D01*
X220635501Y-103915145D01*
X220635501Y-103905156D01*
X220635500Y-103905142D01*
X220635500Y-101600000D01*
X222514659Y-101600000D01*
X222533975Y-101796129D01*
X222591188Y-101984733D01*
X222684086Y-102158532D01*
X222684090Y-102158539D01*
X222809116Y-102310883D01*
X222961460Y-102435909D01*
X222961467Y-102435913D01*
X223135266Y-102528811D01*
X223135269Y-102528811D01*
X223135273Y-102528814D01*
X223323868Y-102586024D01*
X223520000Y-102605341D01*
X223716132Y-102586024D01*
X223904727Y-102528814D01*
X224078538Y-102435910D01*
X224230883Y-102310883D01*
X224355910Y-102158538D01*
X224448814Y-101984727D01*
X224506024Y-101796132D01*
X224525341Y-101600000D01*
X224506024Y-101403868D01*
X224448814Y-101215273D01*
X224448811Y-101215269D01*
X224448811Y-101215266D01*
X224355913Y-101041467D01*
X224355909Y-101041460D01*
X224230883Y-100889116D01*
X224078539Y-100764090D01*
X224078532Y-100764086D01*
X223904733Y-100671188D01*
X223904727Y-100671186D01*
X223716132Y-100613976D01*
X223716129Y-100613975D01*
X223520000Y-100594659D01*
X223323870Y-100613975D01*
X223135266Y-100671188D01*
X222961467Y-100764086D01*
X222961460Y-100764090D01*
X222809116Y-100889116D01*
X222684090Y-101041460D01*
X222684086Y-101041467D01*
X222591188Y-101215266D01*
X222533975Y-101403870D01*
X222514659Y-101600000D01*
X220635500Y-101600000D01*
X220635500Y-99060000D01*
X222514659Y-99060000D01*
X222533975Y-99256129D01*
X222591188Y-99444733D01*
X222684086Y-99618532D01*
X222684090Y-99618539D01*
X222809116Y-99770883D01*
X222961460Y-99895909D01*
X222961467Y-99895913D01*
X223135266Y-99988811D01*
X223135269Y-99988811D01*
X223135273Y-99988814D01*
X223323868Y-100046024D01*
X223520000Y-100065341D01*
X223716132Y-100046024D01*
X223904727Y-99988814D01*
X224078538Y-99895910D01*
X224230883Y-99770883D01*
X224355910Y-99618538D01*
X224448814Y-99444727D01*
X224506024Y-99256132D01*
X224525341Y-99060000D01*
X224506024Y-98863868D01*
X224448814Y-98675273D01*
X224448811Y-98675269D01*
X224448811Y-98675266D01*
X224355913Y-98501467D01*
X224355909Y-98501460D01*
X224230883Y-98349116D01*
X224078539Y-98224090D01*
X224078532Y-98224086D01*
X223904733Y-98131188D01*
X223904727Y-98131186D01*
X223716132Y-98073976D01*
X223716129Y-98073975D01*
X223520000Y-98054659D01*
X223323870Y-98073975D01*
X223135266Y-98131188D01*
X222961467Y-98224086D01*
X222961460Y-98224090D01*
X222809116Y-98349116D01*
X222684090Y-98501460D01*
X222684086Y-98501467D01*
X222591188Y-98675266D01*
X222533975Y-98863870D01*
X222514659Y-99060000D01*
X220635500Y-99060000D01*
X220635500Y-96520001D01*
X222514659Y-96520001D01*
X222533975Y-96716130D01*
X222591188Y-96904734D01*
X222684086Y-97078533D01*
X222684090Y-97078540D01*
X222809116Y-97230884D01*
X222961460Y-97355910D01*
X222961467Y-97355914D01*
X223135266Y-97448812D01*
X223135269Y-97448812D01*
X223135273Y-97448815D01*
X223323868Y-97506025D01*
X223520000Y-97525342D01*
X223716132Y-97506025D01*
X223904727Y-97448815D01*
X224078538Y-97355911D01*
X224230883Y-97230884D01*
X224355910Y-97078539D01*
X224448814Y-96904728D01*
X224506024Y-96716133D01*
X224525341Y-96520001D01*
X224506024Y-96323869D01*
X224448814Y-96135274D01*
X224448811Y-96135270D01*
X224448811Y-96135267D01*
X224355913Y-95961468D01*
X224355909Y-95961461D01*
X224230883Y-95809117D01*
X224078539Y-95684091D01*
X224078532Y-95684087D01*
X223904733Y-95591189D01*
X223904727Y-95591187D01*
X223716132Y-95533977D01*
X223716129Y-95533976D01*
X223520000Y-95514660D01*
X223323870Y-95533976D01*
X223135266Y-95591189D01*
X222961467Y-95684087D01*
X222961460Y-95684091D01*
X222809116Y-95809117D01*
X222684090Y-95961461D01*
X222684086Y-95961468D01*
X222591188Y-96135267D01*
X222533975Y-96323871D01*
X222514659Y-96520001D01*
X220635500Y-96520001D01*
X220635500Y-93980000D01*
X222514659Y-93980000D01*
X222533975Y-94176129D01*
X222591188Y-94364733D01*
X222684086Y-94538532D01*
X222684090Y-94538539D01*
X222809116Y-94690883D01*
X222961460Y-94815909D01*
X222961467Y-94815913D01*
X223135266Y-94908811D01*
X223135269Y-94908811D01*
X223135273Y-94908814D01*
X223323868Y-94966024D01*
X223520000Y-94985341D01*
X223716132Y-94966024D01*
X223904727Y-94908814D01*
X224078538Y-94815910D01*
X224230883Y-94690883D01*
X224355910Y-94538538D01*
X224448814Y-94364727D01*
X224506024Y-94176132D01*
X224525341Y-93980000D01*
X224506024Y-93783868D01*
X224448814Y-93595273D01*
X224448811Y-93595269D01*
X224448811Y-93595266D01*
X224355913Y-93421467D01*
X224355909Y-93421460D01*
X224230883Y-93269116D01*
X224078539Y-93144090D01*
X224078532Y-93144086D01*
X223904733Y-93051188D01*
X223904727Y-93051186D01*
X223716132Y-92993976D01*
X223716129Y-92993975D01*
X223520000Y-92974659D01*
X223323870Y-92993975D01*
X223135266Y-93051188D01*
X222961467Y-93144086D01*
X222961460Y-93144090D01*
X222809116Y-93269116D01*
X222684090Y-93421460D01*
X222684086Y-93421467D01*
X222591188Y-93595266D01*
X222533975Y-93783870D01*
X222514659Y-93980000D01*
X220635500Y-93980000D01*
X220635500Y-91440000D01*
X222514659Y-91440000D01*
X222533975Y-91636129D01*
X222591188Y-91824733D01*
X222684086Y-91998532D01*
X222684090Y-91998539D01*
X222809116Y-92150883D01*
X222961460Y-92275909D01*
X222961467Y-92275913D01*
X223135266Y-92368811D01*
X223135269Y-92368811D01*
X223135273Y-92368814D01*
X223323868Y-92426024D01*
X223520000Y-92445341D01*
X223716132Y-92426024D01*
X223904727Y-92368814D01*
X224078538Y-92275910D01*
X224230883Y-92150883D01*
X224355910Y-91998538D01*
X224448814Y-91824727D01*
X224506024Y-91636132D01*
X224525341Y-91440000D01*
X224506024Y-91243868D01*
X224448814Y-91055273D01*
X224448811Y-91055269D01*
X224448811Y-91055266D01*
X224355913Y-90881467D01*
X224355909Y-90881460D01*
X224230883Y-90729116D01*
X224078539Y-90604090D01*
X224078532Y-90604086D01*
X223904733Y-90511188D01*
X223904727Y-90511186D01*
X223716132Y-90453976D01*
X223716129Y-90453975D01*
X223520000Y-90434659D01*
X223323870Y-90453975D01*
X223135266Y-90511188D01*
X222961467Y-90604086D01*
X222961460Y-90604090D01*
X222809116Y-90729116D01*
X222684090Y-90881460D01*
X222684086Y-90881467D01*
X222591188Y-91055266D01*
X222533975Y-91243870D01*
X222514659Y-91440000D01*
X220635500Y-91440000D01*
X220635500Y-89857229D01*
X220655185Y-89790190D01*
X220671814Y-89769553D01*
X221541367Y-88900000D01*
X222514659Y-88900000D01*
X222533975Y-89096129D01*
X222591188Y-89284733D01*
X222684086Y-89458532D01*
X222684090Y-89458539D01*
X222809116Y-89610883D01*
X222961460Y-89735909D01*
X222961467Y-89735913D01*
X223135266Y-89828811D01*
X223135269Y-89828811D01*
X223135273Y-89828814D01*
X223323868Y-89886024D01*
X223520000Y-89905341D01*
X223716132Y-89886024D01*
X223904727Y-89828814D01*
X224078538Y-89735910D01*
X224230883Y-89610883D01*
X224355910Y-89458538D01*
X224448814Y-89284727D01*
X224506024Y-89096132D01*
X224525341Y-88900000D01*
X224506024Y-88703868D01*
X224448814Y-88515273D01*
X224448811Y-88515269D01*
X224448811Y-88515266D01*
X224355913Y-88341467D01*
X224355909Y-88341460D01*
X224230883Y-88189116D01*
X224078539Y-88064090D01*
X224078532Y-88064086D01*
X223904733Y-87971188D01*
X223904727Y-87971186D01*
X223716132Y-87913976D01*
X223716129Y-87913975D01*
X223520000Y-87894659D01*
X223323870Y-87913975D01*
X223135266Y-87971188D01*
X222961467Y-88064086D01*
X222961460Y-88064090D01*
X222809116Y-88189116D01*
X222684090Y-88341460D01*
X222684086Y-88341467D01*
X222591188Y-88515266D01*
X222533975Y-88703870D01*
X222514659Y-88900000D01*
X221541367Y-88900000D01*
X222475294Y-87966072D01*
X222475297Y-87966071D01*
X222492735Y-87948633D01*
X222492736Y-87948633D01*
X222556170Y-87885199D01*
X222570390Y-87850868D01*
X222590501Y-87802317D01*
X222590501Y-87712608D01*
X222590501Y-87702619D01*
X222590500Y-87702605D01*
X222590500Y-87151055D01*
X222610185Y-87084016D01*
X222662989Y-87038261D01*
X222732147Y-87028317D01*
X222795703Y-87057342D01*
X222804750Y-87066635D01*
X222804809Y-87066577D01*
X222809114Y-87070882D01*
X222961460Y-87195910D01*
X222961467Y-87195914D01*
X223135266Y-87288812D01*
X223135269Y-87288812D01*
X223135273Y-87288815D01*
X223323868Y-87346025D01*
X223520000Y-87365342D01*
X223716132Y-87346025D01*
X223904727Y-87288815D01*
X224078538Y-87195911D01*
X224230883Y-87070884D01*
X224355910Y-86918539D01*
X224448814Y-86744728D01*
X224506024Y-86556133D01*
X224525341Y-86360001D01*
X224506024Y-86163869D01*
X224448814Y-85975274D01*
X224448811Y-85975270D01*
X224448811Y-85975267D01*
X224355913Y-85801468D01*
X224355909Y-85801461D01*
X224230883Y-85649117D01*
X224078539Y-85524091D01*
X224078532Y-85524087D01*
X223904733Y-85431189D01*
X223904727Y-85431187D01*
X223716132Y-85373977D01*
X223716129Y-85373976D01*
X223520000Y-85354660D01*
X223323870Y-85373976D01*
X223135266Y-85431189D01*
X222961467Y-85524087D01*
X222961460Y-85524091D01*
X222809114Y-85649119D01*
X222804809Y-85653425D01*
X222803597Y-85652213D01*
X222752603Y-85686947D01*
X222682759Y-85688815D01*
X222622992Y-85652625D01*
X222592278Y-85589868D01*
X222590500Y-85568946D01*
X222590500Y-84611053D01*
X222610185Y-84544014D01*
X222662989Y-84498259D01*
X222732147Y-84488315D01*
X222795703Y-84517340D01*
X222804750Y-84526633D01*
X222804809Y-84526575D01*
X222809114Y-84530880D01*
X222961460Y-84655908D01*
X222961467Y-84655912D01*
X223135266Y-84748810D01*
X223135269Y-84748810D01*
X223135273Y-84748813D01*
X223323868Y-84806023D01*
X223520000Y-84825340D01*
X223716132Y-84806023D01*
X223904727Y-84748813D01*
X224078538Y-84655909D01*
X224230883Y-84530882D01*
X224355910Y-84378537D01*
X224448814Y-84204726D01*
X224506024Y-84016131D01*
X224525341Y-83819999D01*
X224506024Y-83623867D01*
X224448814Y-83435272D01*
X224448811Y-83435268D01*
X224448811Y-83435265D01*
X224355913Y-83261466D01*
X224355909Y-83261459D01*
X224230883Y-83109115D01*
X224078539Y-82984089D01*
X224078532Y-82984085D01*
X223904733Y-82891187D01*
X223904727Y-82891185D01*
X223716132Y-82833975D01*
X223716129Y-82833974D01*
X223520000Y-82814658D01*
X223323870Y-82833974D01*
X223135266Y-82891187D01*
X222961467Y-82984085D01*
X222961460Y-82984089D01*
X222809114Y-83109117D01*
X222804809Y-83113423D01*
X222803597Y-83112211D01*
X222752603Y-83146945D01*
X222682759Y-83148813D01*
X222622992Y-83112623D01*
X222592278Y-83049866D01*
X222590500Y-83028944D01*
X222590500Y-82071054D01*
X222610185Y-82004015D01*
X222662989Y-81958260D01*
X222732147Y-81948316D01*
X222795703Y-81977341D01*
X222804750Y-81986634D01*
X222804809Y-81986576D01*
X222809114Y-81990881D01*
X222961460Y-82115909D01*
X222961467Y-82115913D01*
X223135266Y-82208811D01*
X223135269Y-82208811D01*
X223135273Y-82208814D01*
X223323868Y-82266024D01*
X223520000Y-82285341D01*
X223716132Y-82266024D01*
X223904727Y-82208814D01*
X224078538Y-82115910D01*
X224230883Y-81990883D01*
X224355910Y-81838538D01*
X224448814Y-81664727D01*
X224506024Y-81476132D01*
X224525341Y-81280000D01*
X224506024Y-81083868D01*
X224448814Y-80895273D01*
X224448811Y-80895269D01*
X224448811Y-80895266D01*
X224355913Y-80721467D01*
X224355909Y-80721460D01*
X224230883Y-80569116D01*
X224078539Y-80444090D01*
X224078532Y-80444086D01*
X223904733Y-80351188D01*
X223904727Y-80351186D01*
X223716132Y-80293976D01*
X223716129Y-80293975D01*
X223520000Y-80274659D01*
X223323870Y-80293975D01*
X223135266Y-80351188D01*
X222961467Y-80444086D01*
X222961460Y-80444090D01*
X222809114Y-80569118D01*
X222804809Y-80573424D01*
X222803597Y-80572212D01*
X222752603Y-80606946D01*
X222682759Y-80608814D01*
X222622992Y-80572624D01*
X222592278Y-80509867D01*
X222590500Y-80488945D01*
X222590500Y-79964297D01*
X222590501Y-79964288D01*
X222590501Y-79860147D01*
X222590501Y-79860146D01*
X222556170Y-79777265D01*
X222556170Y-79777264D01*
X222492736Y-79713830D01*
X222485671Y-79706765D01*
X222485664Y-79706759D01*
X222051819Y-79272914D01*
X222018334Y-79211591D01*
X222015500Y-79185233D01*
X222015500Y-78786025D01*
X222015501Y-78786016D01*
X222015501Y-78681874D01*
X222015501Y-78681873D01*
X221981170Y-78598993D01*
X221981170Y-78598992D01*
X221981169Y-78598991D01*
X221971731Y-78576206D01*
X221973743Y-78575372D01*
X221959737Y-78549721D01*
X221964721Y-78480029D01*
X221993220Y-78435685D01*
X222892087Y-77536819D01*
X222953410Y-77503334D01*
X222979768Y-77500500D01*
X223373375Y-77500500D01*
X223440414Y-77520185D01*
X223486169Y-77572989D01*
X223496113Y-77642147D01*
X223467088Y-77705703D01*
X223408310Y-77743477D01*
X223385529Y-77747903D01*
X223323870Y-77753975D01*
X223135266Y-77811188D01*
X222961467Y-77904086D01*
X222961460Y-77904090D01*
X222809116Y-78029116D01*
X222684090Y-78181460D01*
X222684086Y-78181467D01*
X222591188Y-78355266D01*
X222533975Y-78543870D01*
X222514659Y-78740000D01*
X222533975Y-78936129D01*
X222591188Y-79124733D01*
X222684086Y-79298532D01*
X222684090Y-79298539D01*
X222809116Y-79450883D01*
X222961460Y-79575909D01*
X222961467Y-79575913D01*
X223135266Y-79668811D01*
X223135269Y-79668811D01*
X223135273Y-79668814D01*
X223323868Y-79726024D01*
X223520000Y-79745341D01*
X223716132Y-79726024D01*
X223904727Y-79668814D01*
X223911242Y-79665332D01*
X224078532Y-79575913D01*
X224078538Y-79575910D01*
X224230883Y-79450883D01*
X224355910Y-79298538D01*
X224448814Y-79124727D01*
X224506024Y-78936132D01*
X224525341Y-78740000D01*
X224506024Y-78543868D01*
X224448814Y-78355273D01*
X224448811Y-78355269D01*
X224448811Y-78355266D01*
X224355913Y-78181467D01*
X224355909Y-78181460D01*
X224230883Y-78029116D01*
X224078539Y-77904090D01*
X224078532Y-77904086D01*
X223904733Y-77811188D01*
X223904727Y-77811186D01*
X223716132Y-77753976D01*
X223716129Y-77753975D01*
X223654471Y-77747903D01*
X223589684Y-77721742D01*
X223549325Y-77664708D01*
X223546208Y-77594908D01*
X223581322Y-77534503D01*
X223643520Y-77502672D01*
X223666625Y-77500500D01*
X224085703Y-77500500D01*
X224085711Y-77500501D01*
X224100145Y-77500501D01*
X224189853Y-77500501D01*
X224189855Y-77500501D01*
X224248460Y-77476225D01*
X224272736Y-77466170D01*
X224336170Y-77402736D01*
X224336170Y-77402735D01*
X224353608Y-77385297D01*
X224353610Y-77385294D01*
X224705294Y-77033610D01*
X224705297Y-77033608D01*
X224722735Y-77016170D01*
X224722736Y-77016170D01*
X224786170Y-76952736D01*
X224803926Y-76909869D01*
X224820501Y-76869855D01*
X224820501Y-76780145D01*
X224820501Y-76770156D01*
X224820500Y-76770142D01*
X224820500Y-59554297D01*
X224820501Y-59554288D01*
X224820501Y-59450147D01*
X224820501Y-59450146D01*
X224786170Y-59367265D01*
X224786170Y-59367264D01*
X224722736Y-59303830D01*
X224715671Y-59296765D01*
X224715664Y-59296759D01*
X224435405Y-59016500D01*
X224401920Y-58955177D01*
X224406904Y-58885485D01*
X224413722Y-58870378D01*
X224448814Y-58804727D01*
X224506024Y-58616132D01*
X224525341Y-58420000D01*
X224506024Y-58223868D01*
X224448814Y-58035273D01*
X224448811Y-58035269D01*
X224448811Y-58035266D01*
X224355913Y-57861467D01*
X224355909Y-57861460D01*
X224230883Y-57709116D01*
X224078539Y-57584090D01*
X224078532Y-57584086D01*
X223904733Y-57491188D01*
X223904727Y-57491186D01*
X223716132Y-57433976D01*
X223716129Y-57433975D01*
X223520000Y-57414659D01*
X223323870Y-57433975D01*
X223135266Y-57491188D01*
X222961467Y-57584086D01*
X222961460Y-57584090D01*
X222809116Y-57709116D01*
X222684090Y-57861460D01*
X222684086Y-57861467D01*
X222591188Y-58035266D01*
X222533975Y-58223870D01*
X222514659Y-58420000D01*
X222533975Y-58616129D01*
X222591188Y-58804733D01*
X222684086Y-58978532D01*
X222684090Y-58978539D01*
X222809116Y-59130883D01*
X222961460Y-59255909D01*
X222961467Y-59255913D01*
X223135266Y-59348811D01*
X223135269Y-59348811D01*
X223135273Y-59348814D01*
X223323868Y-59406024D01*
X223520000Y-59425341D01*
X223716132Y-59406024D01*
X223904727Y-59348814D01*
X223970367Y-59313728D01*
X224038766Y-59299486D01*
X224104010Y-59324485D01*
X224116500Y-59335405D01*
X224333181Y-59552086D01*
X224366666Y-59613409D01*
X224369500Y-59639767D01*
X224369500Y-60100699D01*
X224349815Y-60167738D01*
X224297011Y-60213493D01*
X224227853Y-60223437D01*
X224166835Y-60196552D01*
X224078539Y-60124089D01*
X224078532Y-60124085D01*
X223904733Y-60031187D01*
X223904727Y-60031185D01*
X223716132Y-59973975D01*
X223716129Y-59973974D01*
X223520000Y-59954658D01*
X223323870Y-59973974D01*
X223135266Y-60031187D01*
X222961467Y-60124085D01*
X222961460Y-60124089D01*
X222809116Y-60249115D01*
X222684090Y-60401459D01*
X222684086Y-60401466D01*
X222591188Y-60575265D01*
X222533975Y-60763869D01*
X222525845Y-60846416D01*
X222500000Y-59580000D01*
X222010000Y-57120000D01*
X222700000Y-57070000D01*
X223503112Y-56883677D01*
X223520000Y-56885341D01*
X223716132Y-56866024D01*
X223904727Y-56808814D01*
X223965255Y-56776460D01*
X225124500Y-56507516D01*
X225124500Y-126210500D01*
G37*
%TD.AperFunction*%
%TA.AperFunction,Conductor*%
G36*
X208530000Y-124026988D02*
G01*
X208472993Y-123994075D01*
X208345826Y-123960000D01*
X208214174Y-123960000D01*
X208087007Y-123994075D01*
X208030000Y-124026988D01*
X208030000Y-122353012D01*
X208087007Y-122385925D01*
X208214174Y-122420000D01*
X208345826Y-122420000D01*
X208472993Y-122385925D01*
X208530000Y-122353012D01*
X208530000Y-124026988D01*
G37*
%TD.AperFunction*%
%TA.AperFunction,Conductor*%
G36*
X212814506Y-72783650D02*
G01*
X212860260Y-72836454D01*
X212863594Y-72859645D01*
X212880440Y-72883387D01*
X212919072Y-72883387D01*
X212488962Y-73324525D01*
X212488962Y-73274864D01*
X212452140Y-73248738D01*
X212408856Y-73193890D01*
X212402096Y-73124348D01*
X212434006Y-73062191D01*
X212456853Y-73043294D01*
X212518049Y-73003967D01*
X212602882Y-72906063D01*
X212634672Y-72836452D01*
X212680427Y-72783649D01*
X212747466Y-72763965D01*
X212814506Y-72783650D01*
G37*
%TD.AperFunction*%
%TA.AperFunction,Conductor*%
G36*
X218440000Y-63040000D02*
G01*
X218090000Y-63670000D01*
X216490000Y-66600000D01*
X216880000Y-67810000D01*
X221240000Y-67230000D01*
X222620000Y-64480000D01*
X222602420Y-63905749D01*
X222684086Y-64058533D01*
X222684090Y-64058540D01*
X222809116Y-64210884D01*
X222961460Y-64335910D01*
X222961467Y-64335914D01*
X223135266Y-64428812D01*
X223135269Y-64428812D01*
X223135273Y-64428815D01*
X223323868Y-64486025D01*
X223520000Y-64505342D01*
X223716132Y-64486025D01*
X223904727Y-64428815D01*
X224078538Y-64335911D01*
X224166835Y-64263446D01*
X224231144Y-64236134D01*
X224300012Y-64247925D01*
X224351572Y-64295077D01*
X224369500Y-64359300D01*
X224369500Y-65180700D01*
X224349815Y-65247739D01*
X224297011Y-65293494D01*
X224227853Y-65303438D01*
X224166835Y-65276553D01*
X224078539Y-65204090D01*
X224078532Y-65204086D01*
X223904733Y-65111188D01*
X223904727Y-65111186D01*
X223716132Y-65053976D01*
X223716129Y-65053975D01*
X223520000Y-65034659D01*
X223323870Y-65053975D01*
X223135266Y-65111188D01*
X222961467Y-65204086D01*
X222961460Y-65204090D01*
X222809116Y-65329116D01*
X222684090Y-65481460D01*
X222684086Y-65481467D01*
X222591188Y-65655266D01*
X222533975Y-65843870D01*
X222514659Y-66040000D01*
X222533975Y-66236129D01*
X222591188Y-66424733D01*
X222684086Y-66598532D01*
X222684090Y-66598539D01*
X222809116Y-66750883D01*
X222961460Y-66875909D01*
X222961467Y-66875913D01*
X223135266Y-66968811D01*
X223135269Y-66968811D01*
X223135273Y-66968814D01*
X223323868Y-67026024D01*
X223520000Y-67045341D01*
X223716132Y-67026024D01*
X223904727Y-66968814D01*
X224078538Y-66875910D01*
X224166835Y-66803445D01*
X224231144Y-66776133D01*
X224300012Y-66787924D01*
X224351572Y-66835076D01*
X224369500Y-66899299D01*
X224369500Y-67720700D01*
X224349815Y-67787739D01*
X224297011Y-67833494D01*
X224227853Y-67843438D01*
X224166835Y-67816553D01*
X224078539Y-67744090D01*
X224078532Y-67744086D01*
X223904733Y-67651188D01*
X223904727Y-67651186D01*
X223716132Y-67593976D01*
X223716129Y-67593975D01*
X223520000Y-67574659D01*
X223323870Y-67593975D01*
X223135266Y-67651188D01*
X222961467Y-67744086D01*
X222961460Y-67744090D01*
X222809116Y-67869116D01*
X222684090Y-68021460D01*
X222684086Y-68021467D01*
X222591188Y-68195266D01*
X222533975Y-68383870D01*
X222514659Y-68580000D01*
X222533975Y-68776129D01*
X222591188Y-68964733D01*
X222684086Y-69138532D01*
X222684090Y-69138539D01*
X222809116Y-69290883D01*
X222961460Y-69415909D01*
X222961467Y-69415913D01*
X223135266Y-69508811D01*
X223135269Y-69508811D01*
X223135273Y-69508814D01*
X223323868Y-69566024D01*
X223520000Y-69585341D01*
X223716132Y-69566024D01*
X223904727Y-69508814D01*
X224078538Y-69415910D01*
X224166835Y-69343445D01*
X224231144Y-69316133D01*
X224300012Y-69327924D01*
X224351572Y-69375076D01*
X224369500Y-69439299D01*
X224369500Y-70260700D01*
X224349815Y-70327739D01*
X224297011Y-70373494D01*
X224227853Y-70383438D01*
X224166835Y-70356553D01*
X224078539Y-70284090D01*
X224078532Y-70284086D01*
X223904733Y-70191188D01*
X223904727Y-70191186D01*
X223716132Y-70133976D01*
X223716129Y-70133975D01*
X223520000Y-70114659D01*
X223323870Y-70133975D01*
X223135266Y-70191188D01*
X222961467Y-70284086D01*
X222961460Y-70284090D01*
X222809116Y-70409116D01*
X222684090Y-70561460D01*
X222684086Y-70561467D01*
X222591188Y-70735266D01*
X222533975Y-70923870D01*
X222514659Y-71120000D01*
X222533975Y-71316129D01*
X222591188Y-71504733D01*
X222684086Y-71678532D01*
X222684090Y-71678539D01*
X222809116Y-71830883D01*
X222961460Y-71955909D01*
X222961467Y-71955913D01*
X223135266Y-72048811D01*
X223135269Y-72048811D01*
X223135273Y-72048814D01*
X223323868Y-72106024D01*
X223520000Y-72125341D01*
X223716132Y-72106024D01*
X223904727Y-72048814D01*
X223939926Y-72030000D01*
X224078532Y-71955913D01*
X224078538Y-71955910D01*
X224166835Y-71883445D01*
X224231144Y-71856133D01*
X224300012Y-71867924D01*
X224351572Y-71915076D01*
X224369500Y-71979299D01*
X224369500Y-72800701D01*
X224349815Y-72867740D01*
X224297011Y-72913495D01*
X224227853Y-72923439D01*
X224166835Y-72896554D01*
X224078539Y-72824091D01*
X224078532Y-72824087D01*
X223904733Y-72731189D01*
X223904727Y-72731187D01*
X223716132Y-72673977D01*
X223716129Y-72673976D01*
X223520000Y-72654660D01*
X223323870Y-72673976D01*
X223135266Y-72731189D01*
X222961467Y-72824087D01*
X222961460Y-72824091D01*
X222809116Y-72949117D01*
X222684090Y-73101461D01*
X222684086Y-73101468D01*
X222591188Y-73275267D01*
X222533975Y-73463871D01*
X222514659Y-73660001D01*
X222533975Y-73856130D01*
X222533976Y-73856133D01*
X222580090Y-74008151D01*
X222591188Y-74044734D01*
X222684086Y-74218533D01*
X222684090Y-74218540D01*
X222809116Y-74370884D01*
X222961460Y-74495910D01*
X222961467Y-74495914D01*
X223135266Y-74588812D01*
X223135269Y-74588812D01*
X223135273Y-74588815D01*
X223323868Y-74646025D01*
X223520000Y-74665342D01*
X223716132Y-74646025D01*
X223904727Y-74588815D01*
X223907738Y-74587206D01*
X224078532Y-74495914D01*
X224078538Y-74495911D01*
X224166835Y-74423446D01*
X224231144Y-74396134D01*
X224300012Y-74407925D01*
X224351572Y-74455077D01*
X224369500Y-74519300D01*
X224369500Y-75340700D01*
X224349815Y-75407739D01*
X224297011Y-75453494D01*
X224227853Y-75463438D01*
X224166835Y-75436553D01*
X224078539Y-75364090D01*
X224078532Y-75364086D01*
X223904733Y-75271188D01*
X223904727Y-75271186D01*
X223716132Y-75213976D01*
X223716129Y-75213975D01*
X223520000Y-75194659D01*
X223323870Y-75213975D01*
X223135266Y-75271188D01*
X222961467Y-75364086D01*
X222961460Y-75364090D01*
X222809116Y-75489116D01*
X222684090Y-75641460D01*
X222684086Y-75641467D01*
X222591188Y-75815266D01*
X222533975Y-76003870D01*
X222514659Y-76200000D01*
X222533975Y-76396129D01*
X222591188Y-76584733D01*
X222684086Y-76758532D01*
X222684090Y-76758539D01*
X222783135Y-76879224D01*
X222810448Y-76943534D01*
X222798657Y-77012401D01*
X222751505Y-77063962D01*
X222734736Y-77072449D01*
X222707268Y-77083826D01*
X222707264Y-77083829D01*
X221674316Y-78116777D01*
X221612993Y-78150262D01*
X221543301Y-78145278D01*
X221498954Y-78116777D01*
X221468534Y-78086357D01*
X221435049Y-78025034D01*
X221433477Y-77981032D01*
X221441769Y-77923364D01*
X221423333Y-77795138D01*
X221369518Y-77677301D01*
X221284685Y-77579397D01*
X221175705Y-77509360D01*
X221175701Y-77509358D01*
X221175700Y-77509358D01*
X221051410Y-77472864D01*
X221051408Y-77472864D01*
X220921864Y-77472864D01*
X220921862Y-77472864D01*
X220797569Y-77509358D01*
X220797568Y-77509358D01*
X220696538Y-77574286D01*
X220629499Y-77593970D01*
X220562459Y-77574285D01*
X220516705Y-77521480D01*
X220505500Y-77469970D01*
X220505500Y-71748300D01*
X220525185Y-71681261D01*
X220562461Y-71643984D01*
X220578049Y-71633967D01*
X220662882Y-71536063D01*
X220716697Y-71418226D01*
X220735133Y-71290000D01*
X220716697Y-71161774D01*
X220662882Y-71043937D01*
X220578049Y-70946033D01*
X220469069Y-70875996D01*
X220469065Y-70875994D01*
X220469064Y-70875994D01*
X220344774Y-70839500D01*
X220344772Y-70839500D01*
X220215228Y-70839500D01*
X220215226Y-70839500D01*
X220090935Y-70875994D01*
X220090932Y-70875995D01*
X220090931Y-70875996D01*
X220039677Y-70908934D01*
X219981950Y-70946033D01*
X219897118Y-71043937D01*
X219897117Y-71043938D01*
X219843302Y-71161774D01*
X219824867Y-71290000D01*
X219843302Y-71418225D01*
X219882807Y-71504727D01*
X219897118Y-71536063D01*
X219981951Y-71633967D01*
X219997537Y-71643983D01*
X220043293Y-71696786D01*
X220054500Y-71748300D01*
X220054500Y-77615142D01*
X220054499Y-77615156D01*
X220054499Y-77714857D01*
X220077906Y-77771363D01*
X220077907Y-77771366D01*
X220088827Y-77797730D01*
X220088828Y-77797732D01*
X220088830Y-77797736D01*
X220088832Y-77797738D01*
X220169700Y-77878606D01*
X220169706Y-77878611D01*
X220199817Y-77908722D01*
X220233302Y-77970045D01*
X220236136Y-77996403D01*
X220236136Y-78371042D01*
X220236135Y-78371056D01*
X220236135Y-78470755D01*
X220248757Y-78501225D01*
X220248758Y-78501228D01*
X220270466Y-78553636D01*
X220351336Y-78634506D01*
X220351342Y-78634511D01*
X221578181Y-79861350D01*
X221611666Y-79922673D01*
X221614500Y-79949031D01*
X221614500Y-87081699D01*
X221594815Y-87148738D01*
X221557542Y-87186013D01*
X221541951Y-87196032D01*
X221541949Y-87196034D01*
X221457118Y-87293937D01*
X221457117Y-87293938D01*
X221403302Y-87411774D01*
X221384867Y-87540000D01*
X221403302Y-87668225D01*
X221435547Y-87738830D01*
X221457118Y-87786063D01*
X221541951Y-87883967D01*
X221642400Y-87948521D01*
X221688153Y-88001323D01*
X221698097Y-88070481D01*
X221669073Y-88134037D01*
X221663040Y-88140516D01*
X220282265Y-89521292D01*
X220218830Y-89584726D01*
X220218830Y-89584728D01*
X220184499Y-89667607D01*
X220184499Y-89771751D01*
X220184500Y-89771760D01*
X220184500Y-103815232D01*
X220164815Y-103882271D01*
X220148181Y-103902913D01*
X216957084Y-107094009D01*
X216895761Y-107127494D01*
X216863641Y-107128642D01*
X216863641Y-107129500D01*
X216725226Y-107129500D01*
X216600935Y-107165994D01*
X216600932Y-107165995D01*
X216600931Y-107165996D01*
X216549677Y-107198934D01*
X216491950Y-107236033D01*
X216407118Y-107333937D01*
X216407117Y-107333938D01*
X216362294Y-107432086D01*
X216316539Y-107484890D01*
X216249499Y-107504574D01*
X216182460Y-107484889D01*
X216136705Y-107432085D01*
X216125500Y-107380574D01*
X216125500Y-87989297D01*
X216125501Y-87989288D01*
X216125501Y-87885146D01*
X216125501Y-87885145D01*
X216091170Y-87802265D01*
X216091170Y-87802264D01*
X216027736Y-87738830D01*
X216020671Y-87731765D01*
X216020664Y-87731759D01*
X207681898Y-79392993D01*
X207648413Y-79331670D01*
X207646841Y-79287668D01*
X207655133Y-79230000D01*
X207636697Y-79101774D01*
X207582882Y-78983937D01*
X207498049Y-78886033D01*
X207397599Y-78821477D01*
X207351845Y-78768675D01*
X207341901Y-78699516D01*
X207370926Y-78635961D01*
X207376934Y-78629507D01*
X207835294Y-78171146D01*
X207835297Y-78171145D01*
X207852735Y-78153707D01*
X207852736Y-78153707D01*
X207916170Y-78090273D01*
X207932396Y-78051099D01*
X207950501Y-78007392D01*
X207950501Y-77917682D01*
X207950501Y-77907693D01*
X207950500Y-77907679D01*
X207950500Y-72033967D01*
X209720566Y-72033967D01*
X209739001Y-72162192D01*
X209777273Y-72245994D01*
X209792817Y-72280030D01*
X209877650Y-72377934D01*
X209986630Y-72447971D01*
X210110924Y-72484466D01*
X210110926Y-72484467D01*
X210110927Y-72484467D01*
X210240471Y-72484467D01*
X210328227Y-72458700D01*
X210398092Y-72458700D01*
X210450839Y-72489996D01*
X211454084Y-73493240D01*
X211487569Y-73554563D01*
X211489141Y-73563274D01*
X211506768Y-73685876D01*
X211552014Y-73784948D01*
X211560584Y-73803714D01*
X211632396Y-73886591D01*
X211645417Y-73901618D01*
X211688009Y-73928990D01*
X211733765Y-73981793D01*
X211743709Y-74050952D01*
X211714685Y-74114508D01*
X211661926Y-74150347D01*
X211488101Y-74211171D01*
X211335452Y-74307086D01*
X211207978Y-74434560D01*
X211112064Y-74587206D01*
X211077318Y-74686509D01*
X211161027Y-74686509D01*
X210882805Y-74971865D01*
X210882805Y-75042575D01*
X211119633Y-75297857D01*
X211207978Y-75438457D01*
X211335452Y-75565931D01*
X211414276Y-75615459D01*
X213605166Y-77977068D01*
X215174717Y-76368278D01*
X215241017Y-76373020D01*
X215264720Y-76384884D01*
X215360641Y-76446529D01*
X215432040Y-76467493D01*
X215484935Y-76483024D01*
X215484937Y-76483025D01*
X215484938Y-76483025D01*
X215523877Y-76483025D01*
X215590916Y-76502710D01*
X215611558Y-76519344D01*
X216238039Y-77145824D01*
X216779414Y-77687199D01*
X216847937Y-77726760D01*
X216886289Y-77737036D01*
X216924363Y-77747238D01*
X217262020Y-77747238D01*
X217296954Y-77752261D01*
X217429479Y-77791172D01*
X217429481Y-77791173D01*
X217429482Y-77791173D01*
X217559027Y-77791173D01*
X217559027Y-77791172D01*
X217683323Y-77754677D01*
X217792303Y-77684640D01*
X217799802Y-77675986D01*
X217821280Y-77651197D01*
X217827300Y-77644729D01*
X217840781Y-77631250D01*
X217840787Y-77631237D01*
X217845649Y-77624904D01*
X217852958Y-77614637D01*
X217877136Y-77586736D01*
X217930951Y-77468899D01*
X217949387Y-77340673D01*
X217930951Y-77212447D01*
X217877136Y-77094610D01*
X217792303Y-76996706D01*
X217683323Y-76926669D01*
X217683319Y-76926667D01*
X217683318Y-76926667D01*
X217559028Y-76890173D01*
X217559026Y-76890173D01*
X217429482Y-76890173D01*
X217429480Y-76890173D01*
X217305189Y-76926667D01*
X217305186Y-76926668D01*
X217305185Y-76926669D01*
X217271679Y-76948201D01*
X217196203Y-76996706D01*
X217163954Y-77033925D01*
X217105175Y-77071699D01*
X217035306Y-77071699D01*
X216982561Y-77040404D01*
X216039090Y-76096934D01*
X216005606Y-76035612D01*
X216004034Y-76026900D01*
X215986407Y-75904299D01*
X215972058Y-75872880D01*
X215932592Y-75786462D01*
X215908132Y-75758233D01*
X215879108Y-75694679D01*
X215887270Y-75637912D01*
X216433594Y-75077931D01*
X216061036Y-74686509D01*
X216203727Y-74686509D01*
X216168981Y-74587206D01*
X216073067Y-74434560D01*
X215945593Y-74307086D01*
X215792950Y-74211174D01*
X215792946Y-74211172D01*
X215693645Y-74176425D01*
X215693645Y-74300516D01*
X215202924Y-73784948D01*
X215302166Y-73784948D01*
X215267420Y-73685645D01*
X215171506Y-73532999D01*
X215044032Y-73405525D01*
X214891389Y-73309613D01*
X214891385Y-73309611D01*
X214792084Y-73274864D01*
X214792084Y-73353306D01*
X214344812Y-72883387D01*
X214400605Y-72883387D01*
X214365859Y-72784084D01*
X214269945Y-72631438D01*
X214177459Y-72538952D01*
X214143974Y-72477629D01*
X214148958Y-72407937D01*
X214171427Y-72370069D01*
X214252879Y-72276067D01*
X214252879Y-72276065D01*
X214252882Y-72276063D01*
X214306697Y-72158226D01*
X214325133Y-72030000D01*
X214306697Y-71901774D01*
X214252882Y-71783937D01*
X214168049Y-71686033D01*
X214059069Y-71615996D01*
X214059065Y-71615994D01*
X214059064Y-71615994D01*
X213934774Y-71579500D01*
X213934772Y-71579500D01*
X213805228Y-71579500D01*
X213805226Y-71579500D01*
X213680935Y-71615994D01*
X213680932Y-71615995D01*
X213680931Y-71615996D01*
X213652969Y-71633966D01*
X213571950Y-71686033D01*
X213487118Y-71783936D01*
X213486449Y-71785401D01*
X213485714Y-71787009D01*
X213483503Y-71789561D01*
X213482324Y-71791397D01*
X213482060Y-71791227D01*
X213439962Y-71839814D01*
X213372924Y-71859500D01*
X212680438Y-71859500D01*
X212604010Y-71879978D01*
X212535489Y-71919540D01*
X212535486Y-71919542D01*
X212281848Y-72173181D01*
X212220525Y-72206666D01*
X212194167Y-72209500D01*
X212155226Y-72209500D01*
X212030935Y-72245994D01*
X212030932Y-72245995D01*
X212030931Y-72245996D01*
X211979677Y-72278934D01*
X211921950Y-72316033D01*
X211837118Y-72413937D01*
X211837117Y-72413938D01*
X211783302Y-72531774D01*
X211763605Y-72668778D01*
X211760854Y-72668382D01*
X211745182Y-72721758D01*
X211692378Y-72767513D01*
X211623220Y-72777457D01*
X211559664Y-72748432D01*
X211553186Y-72742400D01*
X210643053Y-71832268D01*
X210643051Y-71832266D01*
X210610196Y-71813298D01*
X210574529Y-71792706D01*
X210574527Y-71792705D01*
X210569001Y-71789515D01*
X210537286Y-71763328D01*
X210473750Y-71690001D01*
X210453000Y-71676666D01*
X210364768Y-71619963D01*
X210364764Y-71619961D01*
X210364763Y-71619961D01*
X210240473Y-71583467D01*
X210240471Y-71583467D01*
X210110927Y-71583467D01*
X210110925Y-71583467D01*
X209986634Y-71619961D01*
X209986631Y-71619962D01*
X209986630Y-71619963D01*
X209949254Y-71643983D01*
X209877649Y-71690000D01*
X209792817Y-71787904D01*
X209792816Y-71787905D01*
X209739001Y-71905741D01*
X209720566Y-72033967D01*
X207950500Y-72033967D01*
X207950500Y-59689766D01*
X207970185Y-59622727D01*
X207986815Y-59602089D01*
X208862915Y-58725988D01*
X208924236Y-58692505D01*
X208956359Y-58691357D01*
X208956359Y-58690500D01*
X209094773Y-58690500D01*
X209094773Y-58690499D01*
X209219069Y-58654004D01*
X209328049Y-58583967D01*
X209393616Y-58508297D01*
X209452393Y-58470523D01*
X209487329Y-58465500D01*
X218443695Y-58465500D01*
X218440000Y-63040000D01*
G37*
%TD.AperFunction*%
%TA.AperFunction,Conductor*%
G36*
X207366334Y-36515185D02*
G01*
X207412089Y-36567989D01*
X207422033Y-36637147D01*
X207393008Y-36700703D01*
X207334230Y-36738477D01*
X207327806Y-36740178D01*
X207322620Y-36741403D01*
X207187913Y-36791645D01*
X207187906Y-36791649D01*
X207072812Y-36877809D01*
X207072809Y-36877812D01*
X206986649Y-36992906D01*
X206986645Y-36992913D01*
X206936403Y-37127620D01*
X206936401Y-37127627D01*
X206930000Y-37187155D01*
X206930000Y-37835000D01*
X207846988Y-37835000D01*
X207814075Y-37892007D01*
X207780000Y-38019174D01*
X207780000Y-38150826D01*
X207814075Y-38277993D01*
X207846988Y-38335000D01*
X206930000Y-38335000D01*
X206930000Y-38982844D01*
X206936401Y-39042372D01*
X206936403Y-39042379D01*
X206986645Y-39177086D01*
X206986649Y-39177093D01*
X207072809Y-39292187D01*
X207072812Y-39292190D01*
X207187906Y-39378350D01*
X207187913Y-39378354D01*
X207319986Y-39427614D01*
X207375920Y-39469485D01*
X207400337Y-39534949D01*
X207385486Y-39603222D01*
X207364335Y-39631477D01*
X207241886Y-39753926D01*
X207106400Y-39947420D01*
X207106399Y-39947422D01*
X207006570Y-40161507D01*
X207006567Y-40161513D01*
X206949364Y-40374999D01*
X206949364Y-40375000D01*
X207846988Y-40375000D01*
X207814075Y-40432007D01*
X207780000Y-40559174D01*
X207780000Y-40690826D01*
X207814075Y-40817993D01*
X207846988Y-40875000D01*
X206949364Y-40875000D01*
X207006567Y-41088486D01*
X207006570Y-41088492D01*
X207106399Y-41302578D01*
X207241894Y-41496082D01*
X207408917Y-41663105D01*
X207602421Y-41798600D01*
X207816507Y-41898429D01*
X207816516Y-41898433D01*
X208030000Y-41955634D01*
X208030000Y-41058012D01*
X208087007Y-41090925D01*
X208214174Y-41125000D01*
X208345826Y-41125000D01*
X208472993Y-41090925D01*
X208530000Y-41058012D01*
X208530000Y-41955633D01*
X208743483Y-41898433D01*
X208743492Y-41898429D01*
X208957578Y-41798600D01*
X209151082Y-41663105D01*
X209318105Y-41496082D01*
X209453600Y-41302578D01*
X209553429Y-41088492D01*
X209553432Y-41088486D01*
X209610636Y-40875000D01*
X208713012Y-40875000D01*
X208745925Y-40817993D01*
X208780000Y-40690826D01*
X208780000Y-40559174D01*
X208745925Y-40432007D01*
X208713012Y-40375000D01*
X209610636Y-40375000D01*
X209610635Y-40374999D01*
X209553432Y-40161513D01*
X209553429Y-40161507D01*
X209453600Y-39947422D01*
X209453599Y-39947420D01*
X209318113Y-39753926D01*
X209318108Y-39753920D01*
X209195665Y-39631477D01*
X209162180Y-39570154D01*
X209167164Y-39500462D01*
X209209036Y-39444529D01*
X209240013Y-39427614D01*
X209372086Y-39378354D01*
X209372090Y-39378352D01*
X209376635Y-39374950D01*
X209442099Y-39350531D01*
X209510372Y-39365381D01*
X209559779Y-39414786D01*
X209572565Y-39450023D01*
X209574497Y-39459738D01*
X209574499Y-39459744D01*
X209623535Y-39578127D01*
X209675035Y-39655203D01*
X209694726Y-39684673D01*
X209785326Y-39775273D01*
X209785329Y-39775275D01*
X209785331Y-39775277D01*
X209891873Y-39846465D01*
X210010256Y-39895501D01*
X210135926Y-39920498D01*
X210135930Y-39920499D01*
X210135931Y-39920499D01*
X210264070Y-39920499D01*
X210264071Y-39920498D01*
X210389744Y-39895501D01*
X210508127Y-39846465D01*
X210614669Y-39775277D01*
X212210627Y-38179319D01*
X212271950Y-38145834D01*
X212298308Y-38143000D01*
X215611692Y-38143000D01*
X215678731Y-38162685D01*
X215699373Y-38179319D01*
X219295325Y-41775272D01*
X219295326Y-41775273D01*
X219295329Y-41775275D01*
X219295331Y-41775277D01*
X219401873Y-41846465D01*
X219520257Y-41895501D01*
X219520261Y-41895501D01*
X219520262Y-41895502D01*
X219645928Y-41920500D01*
X219645931Y-41920500D01*
X219774071Y-41920500D01*
X219885024Y-41898429D01*
X219899744Y-41895501D01*
X220018127Y-41846465D01*
X220124670Y-41775277D01*
X220215277Y-41684670D01*
X220286465Y-41578127D01*
X220335501Y-41459744D01*
X220343682Y-41418615D01*
X220360500Y-41334071D01*
X220360500Y-41205928D01*
X220335502Y-41080262D01*
X220335501Y-41080261D01*
X220335501Y-41080257D01*
X220286465Y-40961873D01*
X220215277Y-40855331D01*
X220215275Y-40855329D01*
X220215273Y-40855326D01*
X216347173Y-36987226D01*
X216240634Y-36916040D01*
X216240627Y-36916035D01*
X216122244Y-36866999D01*
X216122238Y-36866997D01*
X215996571Y-36842000D01*
X215996569Y-36842000D01*
X211913431Y-36842000D01*
X211913429Y-36842000D01*
X211787761Y-36866997D01*
X211787751Y-36867000D01*
X211738720Y-36887310D01*
X211669381Y-36916030D01*
X211669363Y-36916040D01*
X211562832Y-36987221D01*
X211562825Y-36987227D01*
X209841681Y-38708372D01*
X209780358Y-38741857D01*
X209710666Y-38736873D01*
X209654733Y-38695001D01*
X209630316Y-38629537D01*
X209630000Y-38620691D01*
X209630000Y-38335000D01*
X208713012Y-38335000D01*
X208745925Y-38277993D01*
X208780000Y-38150826D01*
X208780000Y-38019174D01*
X208745925Y-37892007D01*
X208713012Y-37835000D01*
X209630000Y-37835000D01*
X209630000Y-37187172D01*
X209629999Y-37187155D01*
X209623598Y-37127627D01*
X209623596Y-37127620D01*
X209573354Y-36992913D01*
X209573350Y-36992906D01*
X209487190Y-36877812D01*
X209487187Y-36877809D01*
X209372093Y-36791649D01*
X209372086Y-36791645D01*
X209237379Y-36741403D01*
X209232194Y-36740178D01*
X209171477Y-36705606D01*
X209139089Y-36643697D01*
X209145313Y-36574105D01*
X209188174Y-36518926D01*
X209254063Y-36495678D01*
X209260705Y-36495500D01*
X225000500Y-36495500D01*
X225067539Y-36515185D01*
X225113294Y-36567989D01*
X225124500Y-36619500D01*
X225124500Y-42239428D01*
X225070000Y-40620000D01*
X224508807Y-40807866D01*
X224525341Y-40640000D01*
X224506024Y-40443868D01*
X224448814Y-40255273D01*
X224448811Y-40255269D01*
X224448811Y-40255266D01*
X224355913Y-40081467D01*
X224355909Y-40081460D01*
X224230883Y-39929116D01*
X224078539Y-39804090D01*
X224078532Y-39804086D01*
X223904731Y-39711187D01*
X223886190Y-39705562D01*
X223843655Y-39692660D01*
X223785218Y-39654363D01*
X223756762Y-39590551D01*
X223767322Y-39521484D01*
X223813546Y-39469090D01*
X223879652Y-39450000D01*
X224417828Y-39450000D01*
X224417844Y-39449999D01*
X224477372Y-39443598D01*
X224477379Y-39443596D01*
X224612086Y-39393354D01*
X224612093Y-39393350D01*
X224727187Y-39307190D01*
X224727190Y-39307187D01*
X224813350Y-39192093D01*
X224813354Y-39192086D01*
X224863596Y-39057379D01*
X224863598Y-39057372D01*
X224869999Y-38997844D01*
X224870000Y-38997827D01*
X224870000Y-38350000D01*
X223953012Y-38350000D01*
X223985925Y-38292993D01*
X224020000Y-38165826D01*
X224020000Y-38034174D01*
X223985925Y-37907007D01*
X223953012Y-37850000D01*
X224870000Y-37850000D01*
X224870000Y-37202172D01*
X224869999Y-37202155D01*
X224863598Y-37142627D01*
X224863596Y-37142620D01*
X224813354Y-37007913D01*
X224813350Y-37007906D01*
X224727190Y-36892812D01*
X224727187Y-36892809D01*
X224612093Y-36806649D01*
X224612086Y-36806645D01*
X224477379Y-36756403D01*
X224477372Y-36756401D01*
X224417844Y-36750000D01*
X223770000Y-36750000D01*
X223770000Y-37666988D01*
X223712993Y-37634075D01*
X223585826Y-37600000D01*
X223454174Y-37600000D01*
X223327007Y-37634075D01*
X223270000Y-37666988D01*
X223270000Y-36750000D01*
X222622155Y-36750000D01*
X222562627Y-36756401D01*
X222562620Y-36756403D01*
X222427913Y-36806645D01*
X222427906Y-36806649D01*
X222312812Y-36892809D01*
X222312809Y-36892812D01*
X222226649Y-37007906D01*
X222226645Y-37007913D01*
X222176403Y-37142620D01*
X222176401Y-37142627D01*
X222170000Y-37202155D01*
X222170000Y-37850000D01*
X223086988Y-37850000D01*
X223054075Y-37907007D01*
X223020000Y-38034174D01*
X223020000Y-38165826D01*
X223054075Y-38292993D01*
X223086988Y-38350000D01*
X222170000Y-38350000D01*
X222170000Y-38997844D01*
X222176401Y-39057372D01*
X222176403Y-39057379D01*
X222226645Y-39192086D01*
X222226649Y-39192093D01*
X222312809Y-39307187D01*
X222312812Y-39307190D01*
X222427906Y-39393350D01*
X222427913Y-39393354D01*
X222562620Y-39443596D01*
X222562627Y-39443598D01*
X222622155Y-39449999D01*
X222622172Y-39450000D01*
X223160348Y-39450000D01*
X223227387Y-39469685D01*
X223273142Y-39522489D01*
X223283086Y-39591647D01*
X223254061Y-39655203D01*
X223196344Y-39692660D01*
X223166630Y-39701673D01*
X223135268Y-39711187D01*
X222961467Y-39804086D01*
X222961460Y-39804090D01*
X222809116Y-39929116D01*
X222684090Y-40081460D01*
X222684086Y-40081467D01*
X222591188Y-40255266D01*
X222533975Y-40443870D01*
X222514659Y-40640000D01*
X222533975Y-40836129D01*
X222591188Y-41024733D01*
X222684086Y-41198532D01*
X222684090Y-41198539D01*
X222809116Y-41350883D01*
X222831600Y-41369335D01*
X222740000Y-41400000D01*
X219350000Y-42920000D01*
X219400000Y-45830000D01*
X218110000Y-48470000D01*
X218450000Y-50660000D01*
X218444059Y-58014500D01*
X209487329Y-58014500D01*
X209420290Y-57994815D01*
X209393617Y-57971703D01*
X209328049Y-57896033D01*
X209219069Y-57825996D01*
X209219065Y-57825994D01*
X209219064Y-57825994D01*
X209094774Y-57789500D01*
X209094772Y-57789500D01*
X208965228Y-57789500D01*
X208965226Y-57789500D01*
X208840935Y-57825994D01*
X208840932Y-57825995D01*
X208840931Y-57825996D01*
X208789677Y-57858934D01*
X208731950Y-57896033D01*
X208647118Y-57993937D01*
X208647117Y-57993938D01*
X208593302Y-58111774D01*
X208574867Y-58240000D01*
X208574867Y-58240001D01*
X208583157Y-58297667D01*
X208573212Y-58366825D01*
X208548100Y-58402993D01*
X207597265Y-59353829D01*
X207533830Y-59417263D01*
X207533828Y-59417265D01*
X207530421Y-59425494D01*
X207530419Y-59425499D01*
X207499499Y-59500145D01*
X207499499Y-59604288D01*
X207499500Y-59604297D01*
X207499500Y-77817770D01*
X207479815Y-77884809D01*
X207463181Y-77905451D01*
X206727181Y-78641451D01*
X206665858Y-78674936D01*
X206596166Y-78669952D01*
X206540233Y-78628080D01*
X206515816Y-78562616D01*
X206515500Y-78553770D01*
X206515500Y-57614459D01*
X206526706Y-57562947D01*
X206551697Y-57508226D01*
X206570133Y-57380000D01*
X206551697Y-57251774D01*
X206497882Y-57133937D01*
X206413049Y-57036033D01*
X206304069Y-56965996D01*
X206304065Y-56965994D01*
X206304064Y-56965994D01*
X206179774Y-56929500D01*
X206179772Y-56929500D01*
X206050228Y-56929500D01*
X205974433Y-56951754D01*
X205904563Y-56951753D01*
X205845786Y-56913977D01*
X205816762Y-56850421D01*
X205815500Y-56832776D01*
X205815500Y-51854999D01*
X207290884Y-51854999D01*
X207290885Y-51855000D01*
X208198012Y-51855000D01*
X208180795Y-51864940D01*
X208124940Y-51920795D01*
X208085444Y-51989204D01*
X208065000Y-52065504D01*
X208065000Y-52144496D01*
X208085444Y-52220796D01*
X208124940Y-52289205D01*
X208180795Y-52345060D01*
X208198012Y-52355000D01*
X207290885Y-52355000D01*
X207292085Y-52362584D01*
X207345591Y-52527255D01*
X207424195Y-52681524D01*
X207525967Y-52821602D01*
X207648397Y-52944032D01*
X207788475Y-53045804D01*
X207942742Y-53124408D01*
X208107415Y-53177914D01*
X208278429Y-53205000D01*
X208415000Y-53205000D01*
X208415000Y-52405000D01*
X208915000Y-52405000D01*
X208915000Y-53205000D01*
X209051571Y-53205000D01*
X209222584Y-53177914D01*
X209387257Y-53124408D01*
X209541524Y-53045804D01*
X209681602Y-52944032D01*
X209804032Y-52821602D01*
X209905804Y-52681524D01*
X209984408Y-52527255D01*
X210037914Y-52362584D01*
X210039115Y-52355000D01*
X209131988Y-52355000D01*
X209149205Y-52345060D01*
X209205060Y-52289205D01*
X209244556Y-52220796D01*
X209265000Y-52144496D01*
X209265000Y-52065504D01*
X209244556Y-51989204D01*
X209205060Y-51920795D01*
X209149205Y-51864940D01*
X209131988Y-51855000D01*
X210039115Y-51855000D01*
X211394157Y-51855000D01*
X212248012Y-51855000D01*
X212230795Y-51864940D01*
X212174940Y-51920795D01*
X212135444Y-51989204D01*
X212115000Y-52065504D01*
X212115000Y-52144496D01*
X212135444Y-52220796D01*
X212174940Y-52289205D01*
X212230795Y-52345060D01*
X212248012Y-52355000D01*
X211394157Y-52355000D01*
X211405350Y-52411274D01*
X211405351Y-52411276D01*
X211484500Y-52602358D01*
X211484505Y-52602368D01*
X211599410Y-52774335D01*
X211599413Y-52774339D01*
X211745660Y-52920586D01*
X211745664Y-52920589D01*
X211917631Y-53035494D01*
X211917641Y-53035499D01*
X212108725Y-53114649D01*
X212108733Y-53114651D01*
X212311579Y-53154999D01*
X212311583Y-53155000D01*
X212615000Y-53155000D01*
X212615000Y-52405000D01*
X213115000Y-52405000D01*
X213115000Y-53155000D01*
X213418417Y-53155000D01*
X213418420Y-53154999D01*
X213621266Y-53114651D01*
X213621274Y-53114649D01*
X213812358Y-53035499D01*
X213812368Y-53035494D01*
X213984335Y-52920589D01*
X213984339Y-52920586D01*
X214130586Y-52774339D01*
X214130589Y-52774335D01*
X214245494Y-52602368D01*
X214245499Y-52602358D01*
X214324648Y-52411276D01*
X214324649Y-52411274D01*
X214335843Y-52355000D01*
X213481988Y-52355000D01*
X213499205Y-52345060D01*
X213555060Y-52289205D01*
X213594556Y-52220796D01*
X213615000Y-52144496D01*
X213615000Y-52065504D01*
X213594556Y-51989204D01*
X213555060Y-51920795D01*
X213499205Y-51864940D01*
X213481988Y-51855000D01*
X214335843Y-51855000D01*
X214324649Y-51798725D01*
X214324648Y-51798723D01*
X214245499Y-51607641D01*
X214245494Y-51607631D01*
X214130589Y-51435664D01*
X214130586Y-51435660D01*
X213984339Y-51289413D01*
X213984335Y-51289410D01*
X213812368Y-51174505D01*
X213812358Y-51174500D01*
X213621274Y-51095350D01*
X213621266Y-51095348D01*
X213418420Y-51055000D01*
X213075856Y-51055000D01*
X213008817Y-51035315D01*
X212963062Y-50982511D01*
X212953118Y-50913353D01*
X212957925Y-50892681D01*
X212979609Y-50825946D01*
X212989381Y-50764243D01*
X212996739Y-50717795D01*
X212996739Y-50622204D01*
X212987395Y-50563215D01*
X212979609Y-50514054D01*
X212950072Y-50423150D01*
X212950070Y-50423147D01*
X212950070Y-50423145D01*
X212932034Y-50387748D01*
X212900358Y-50325581D01*
X212896747Y-50320610D01*
X212844182Y-50248259D01*
X212766740Y-50170817D01*
X212689422Y-50114644D01*
X212689421Y-50114643D01*
X212689419Y-50114642D01*
X212658951Y-50099118D01*
X212591854Y-50064929D01*
X212570043Y-50057842D01*
X212500946Y-50035391D01*
X212500940Y-50035390D01*
X212392795Y-50018261D01*
X212392790Y-50018261D01*
X212297213Y-50018261D01*
X212297207Y-50018261D01*
X212189058Y-50035389D01*
X212189049Y-50035391D01*
X212098152Y-50064925D01*
X212098151Y-50064925D01*
X212000574Y-50114644D01*
X211923260Y-50170818D01*
X211923251Y-50170825D01*
X211845817Y-50248259D01*
X211789644Y-50325577D01*
X211739929Y-50423145D01*
X211725159Y-50468602D01*
X211710391Y-50514054D01*
X211710390Y-50514057D01*
X211710390Y-50514059D01*
X211693261Y-50622205D01*
X211693261Y-50717796D01*
X211706281Y-50800000D01*
X211710391Y-50825947D01*
X211739928Y-50916850D01*
X211739929Y-50916851D01*
X211789642Y-51014420D01*
X211833963Y-51075423D01*
X211857443Y-51141229D01*
X211841617Y-51209283D01*
X211802536Y-51251410D01*
X211745664Y-51289410D01*
X211745660Y-51289413D01*
X211599413Y-51435660D01*
X211599410Y-51435664D01*
X211484505Y-51607631D01*
X211484500Y-51607641D01*
X211405351Y-51798723D01*
X211405350Y-51798725D01*
X211394157Y-51855000D01*
X210039115Y-51855000D01*
X210039115Y-51854999D01*
X210037914Y-51847415D01*
X209984408Y-51682744D01*
X209905804Y-51528475D01*
X209804032Y-51388397D01*
X209681602Y-51265967D01*
X209541524Y-51164195D01*
X209387257Y-51085591D01*
X209222584Y-51032085D01*
X209051571Y-51005000D01*
X208915000Y-51005000D01*
X208915000Y-51805000D01*
X208415000Y-51805000D01*
X208415000Y-51005000D01*
X208278429Y-51005000D01*
X208107415Y-51032085D01*
X207942742Y-51085591D01*
X207788475Y-51164195D01*
X207648397Y-51265967D01*
X207525967Y-51388397D01*
X207424195Y-51528475D01*
X207345591Y-51682744D01*
X207292085Y-51847415D01*
X207290884Y-51854999D01*
X205815500Y-51854999D01*
X205815500Y-43204999D01*
X207290884Y-43204999D01*
X207290885Y-43205000D01*
X208198012Y-43205000D01*
X208180795Y-43214940D01*
X208124940Y-43270795D01*
X208085444Y-43339204D01*
X208065000Y-43415504D01*
X208065000Y-43494496D01*
X208085444Y-43570796D01*
X208124940Y-43639205D01*
X208180795Y-43695060D01*
X208198012Y-43705000D01*
X207290885Y-43705000D01*
X207292085Y-43712584D01*
X207345591Y-43877255D01*
X207424195Y-44031524D01*
X207525967Y-44171602D01*
X207648397Y-44294032D01*
X207788475Y-44395804D01*
X207942742Y-44474408D01*
X208107415Y-44527914D01*
X208278429Y-44555000D01*
X208415000Y-44555000D01*
X208415000Y-43755000D01*
X208915000Y-43755000D01*
X208915000Y-44555000D01*
X209051571Y-44555000D01*
X209222584Y-44527914D01*
X209387257Y-44474408D01*
X209541524Y-44395804D01*
X209681602Y-44294032D01*
X209804032Y-44171602D01*
X209905804Y-44031524D01*
X209984408Y-43877255D01*
X210037914Y-43712584D01*
X210039115Y-43705000D01*
X209131988Y-43705000D01*
X209149205Y-43695060D01*
X209205060Y-43639205D01*
X209244556Y-43570796D01*
X209265000Y-43494496D01*
X209265000Y-43415504D01*
X209244556Y-43339204D01*
X209205060Y-43270795D01*
X209149205Y-43214940D01*
X209131988Y-43205000D01*
X210039115Y-43205000D01*
X211394157Y-43205000D01*
X212248012Y-43205000D01*
X212230795Y-43214940D01*
X212174940Y-43270795D01*
X212135444Y-43339204D01*
X212115000Y-43415504D01*
X212115000Y-43494496D01*
X212135444Y-43570796D01*
X212174940Y-43639205D01*
X212230795Y-43695060D01*
X212248012Y-43705000D01*
X211394157Y-43705000D01*
X211405350Y-43761274D01*
X211405351Y-43761276D01*
X211484500Y-43952358D01*
X211484505Y-43952368D01*
X211599410Y-44124335D01*
X211599413Y-44124339D01*
X211745661Y-44270587D01*
X211802535Y-44308588D01*
X211847340Y-44362200D01*
X211856049Y-44431525D01*
X211833964Y-44484575D01*
X211789642Y-44545580D01*
X211777903Y-44568620D01*
X211739928Y-44643150D01*
X211710391Y-44734053D01*
X211710390Y-44734057D01*
X211693261Y-44842203D01*
X211693261Y-44937794D01*
X211709833Y-45042422D01*
X211710391Y-45045946D01*
X211732842Y-45115043D01*
X211739929Y-45136854D01*
X211789644Y-45234422D01*
X211845817Y-45311740D01*
X211845823Y-45311746D01*
X211923254Y-45389177D01*
X211923260Y-45389181D01*
X212000574Y-45445355D01*
X212098151Y-45495074D01*
X212189049Y-45524608D01*
X212189054Y-45524609D01*
X212189057Y-45524610D01*
X212297207Y-45541738D01*
X212297208Y-45541739D01*
X212297213Y-45541739D01*
X212392795Y-45541739D01*
X212441951Y-45533952D01*
X212500946Y-45524609D01*
X212591850Y-45495072D01*
X212689419Y-45445358D01*
X212733966Y-45412993D01*
X212766740Y-45389182D01*
X212766742Y-45389179D01*
X212766746Y-45389177D01*
X212844177Y-45311746D01*
X212844179Y-45311742D01*
X212844182Y-45311740D01*
X212868815Y-45277833D01*
X212900358Y-45234419D01*
X212950072Y-45136850D01*
X212979609Y-45045946D01*
X212993773Y-44956517D01*
X212996739Y-44937795D01*
X212996739Y-44842204D01*
X212979609Y-44734057D01*
X212979609Y-44734054D01*
X212957924Y-44667317D01*
X212955929Y-44597478D01*
X212992009Y-44537645D01*
X213054710Y-44506816D01*
X213075856Y-44505000D01*
X213418417Y-44505000D01*
X213418420Y-44504999D01*
X213621266Y-44464651D01*
X213621274Y-44464649D01*
X213812358Y-44385499D01*
X213812368Y-44385494D01*
X213984335Y-44270589D01*
X213984339Y-44270586D01*
X214130586Y-44124339D01*
X214130589Y-44124335D01*
X214245494Y-43952368D01*
X214245499Y-43952358D01*
X214324648Y-43761276D01*
X214324649Y-43761274D01*
X214335843Y-43705000D01*
X213481988Y-43705000D01*
X213499205Y-43695060D01*
X213555060Y-43639205D01*
X213594556Y-43570796D01*
X213615000Y-43494496D01*
X213615000Y-43415504D01*
X213594556Y-43339204D01*
X213555060Y-43270795D01*
X213499205Y-43214940D01*
X213481988Y-43205000D01*
X214335843Y-43205000D01*
X214324649Y-43148725D01*
X214324648Y-43148723D01*
X214245499Y-42957641D01*
X214245494Y-42957631D01*
X214130589Y-42785664D01*
X214130586Y-42785660D01*
X213984339Y-42639413D01*
X213984335Y-42639410D01*
X213812368Y-42524505D01*
X213812358Y-42524500D01*
X213621274Y-42445350D01*
X213621266Y-42445348D01*
X213418420Y-42405000D01*
X213115000Y-42405000D01*
X213115000Y-43155000D01*
X212615000Y-43155000D01*
X212615000Y-42405000D01*
X212311579Y-42405000D01*
X212108733Y-42445348D01*
X212108725Y-42445350D01*
X211917641Y-42524500D01*
X211917631Y-42524505D01*
X211745664Y-42639410D01*
X211745660Y-42639413D01*
X211599413Y-42785660D01*
X211599410Y-42785664D01*
X211484505Y-42957631D01*
X211484500Y-42957641D01*
X211405351Y-43148723D01*
X211405350Y-43148725D01*
X211394157Y-43205000D01*
X210039115Y-43205000D01*
X210039115Y-43204999D01*
X210037914Y-43197415D01*
X209984408Y-43032744D01*
X209905804Y-42878475D01*
X209804032Y-42738397D01*
X209681602Y-42615967D01*
X209541524Y-42514195D01*
X209387257Y-42435591D01*
X209222584Y-42382085D01*
X209051571Y-42355000D01*
X208915000Y-42355000D01*
X208915000Y-43155000D01*
X208415000Y-43155000D01*
X208415000Y-42355000D01*
X208278429Y-42355000D01*
X208107415Y-42382085D01*
X207942742Y-42435591D01*
X207788475Y-42514195D01*
X207648397Y-42615967D01*
X207525967Y-42738397D01*
X207424195Y-42878475D01*
X207345591Y-43032744D01*
X207292085Y-43197415D01*
X207290884Y-43204999D01*
X205815500Y-43204999D01*
X205815500Y-36619500D01*
X205835185Y-36552461D01*
X205887989Y-36506706D01*
X205939500Y-36495500D01*
X207299295Y-36495500D01*
X207366334Y-36515185D01*
G37*
%TD.AperFunction*%
%TA.AperFunction,Conductor*%
G36*
X222533975Y-61156128D02*
G01*
X222591188Y-61344732D01*
X222684086Y-61518531D01*
X222684090Y-61518538D01*
X222809116Y-61670882D01*
X222961460Y-61795908D01*
X222961467Y-61795912D01*
X223135266Y-61888810D01*
X223135269Y-61888810D01*
X223135273Y-61888813D01*
X223323868Y-61946023D01*
X223520000Y-61965340D01*
X223716132Y-61946023D01*
X223904727Y-61888813D01*
X224078538Y-61795909D01*
X224166835Y-61723444D01*
X224231144Y-61696132D01*
X224300012Y-61707923D01*
X224351572Y-61755075D01*
X224369500Y-61819298D01*
X224369500Y-62640701D01*
X224349815Y-62707740D01*
X224297011Y-62753495D01*
X224227853Y-62763439D01*
X224166835Y-62736554D01*
X224078539Y-62664091D01*
X224078532Y-62664087D01*
X223904733Y-62571189D01*
X223904727Y-62571187D01*
X223716132Y-62513977D01*
X223716129Y-62513976D01*
X223520000Y-62494660D01*
X223323870Y-62513976D01*
X223135266Y-62571189D01*
X222961467Y-62664087D01*
X222961460Y-62664091D01*
X222809116Y-62789117D01*
X222684090Y-62941461D01*
X222684086Y-62941468D01*
X222591188Y-63115267D01*
X222579410Y-63154090D01*
X222560000Y-62520000D01*
X222531693Y-61132957D01*
X222533975Y-61156128D01*
G37*
%TD.AperFunction*%
%TA.AperFunction,Conductor*%
G36*
X208530000Y-40191988D02*
G01*
X208472993Y-40159075D01*
X208345826Y-40125000D01*
X208214174Y-40125000D01*
X208087007Y-40159075D01*
X208030000Y-40191988D01*
X208030000Y-38518012D01*
X208087007Y-38550925D01*
X208214174Y-38585000D01*
X208345826Y-38585000D01*
X208472993Y-38550925D01*
X208530000Y-38518012D01*
X208530000Y-40191988D01*
G37*
%TD.AperFunction*%
%TD*%
%TA.AperFunction,Conductor*%
%TO.N,GND*%
G36*
X213740423Y-72461472D02*
G01*
X213805228Y-72480500D01*
X213805229Y-72480500D01*
X213934770Y-72480500D01*
X213934772Y-72480500D01*
X213955536Y-72474403D01*
X216433594Y-75077931D01*
X215841674Y-75684647D01*
X215738783Y-75618523D01*
X215738780Y-75618521D01*
X215738779Y-75618521D01*
X215614482Y-75582025D01*
X215484938Y-75582025D01*
X215411948Y-75603456D01*
X215360643Y-75618520D01*
X215360636Y-75618523D01*
X215251660Y-75688558D01*
X215251658Y-75688559D01*
X215166828Y-75786461D01*
X215166828Y-75786462D01*
X215113013Y-75904299D01*
X215094577Y-76032525D01*
X215113013Y-76160751D01*
X215113014Y-76160753D01*
X215166828Y-76278588D01*
X215211698Y-76330372D01*
X213605166Y-77977068D01*
X210882805Y-75042575D01*
X210882805Y-74971865D01*
X211834949Y-73995306D01*
X211878694Y-74008151D01*
X211878696Y-74008151D01*
X212008236Y-74008151D01*
X212008238Y-74008151D01*
X212132535Y-73971655D01*
X212241515Y-73901618D01*
X212326348Y-73803714D01*
X212380163Y-73685877D01*
X212398599Y-73557651D01*
X212381000Y-73435253D01*
X213331387Y-72460500D01*
X213700438Y-72460500D01*
X213733662Y-72460500D01*
X213740423Y-72461472D01*
G37*
%TD.AperFunction*%
%TD*%
M02*
