%TF.GenerationSoftware,KiCad,Pcbnew,8.0.3*%
%TF.CreationDate,2024-07-23T11:53:19+01:00*%
%TF.ProjectId,ELI2040,454c4932-3034-4302-9e6b-696361645f70,rev?*%
%TF.SameCoordinates,Original*%
%TF.FileFunction,Profile,NP*%
%FSLAX46Y46*%
G04 Gerber Fmt 4.6, Leading zero omitted, Abs format (unit mm)*
G04 Created by KiCad (PCBNEW 8.0.3) date 2024-07-23 11:53:19*
%MOMM*%
%LPD*%
G01*
G04 APERTURE LIST*
%TA.AperFunction,Profile*%
%ADD10C,0.100000*%
%TD*%
%TA.AperFunction,Profile*%
%ADD11C,0.000000*%
%TD*%
G04 APERTURE END LIST*
D10*
X205515000Y-36195000D02*
X225425000Y-36195000D01*
X225425000Y-126635000D01*
X205515000Y-126635000D01*
X205515000Y-36195000D01*
D11*
%TA.AperFunction,Profile*%
%TO.C,USB2*%
G36*
X212453156Y-44557130D02*
G01*
X212550725Y-44606844D01*
X212628156Y-44684275D01*
X212677870Y-44781845D01*
X212695000Y-44890000D01*
X212677870Y-44998156D01*
X212628156Y-45095725D01*
X212550725Y-45173156D01*
X212453156Y-45222870D01*
X212345000Y-45240000D01*
X212236844Y-45222871D01*
X212139275Y-45173156D01*
X212061844Y-45095725D01*
X212012130Y-44998156D01*
X211995000Y-44889999D01*
X212012130Y-44781844D01*
X212061844Y-44684275D01*
X212139275Y-44606844D01*
X212236844Y-44557130D01*
X212345000Y-44540000D01*
X212453156Y-44557130D01*
G37*
%TD.AperFunction*%
%TA.AperFunction,Profile*%
G36*
X212453156Y-50337130D02*
G01*
X212550725Y-50386844D01*
X212628156Y-50464275D01*
X212677870Y-50561844D01*
X212695000Y-50670000D01*
X212677870Y-50778155D01*
X212628156Y-50875725D01*
X212550725Y-50953156D01*
X212453156Y-51002870D01*
X212345000Y-51020000D01*
X212236844Y-51002870D01*
X212139275Y-50953156D01*
X212061844Y-50875725D01*
X212012130Y-50778156D01*
X211995000Y-50670001D01*
X212012130Y-50561844D01*
X212061844Y-50464275D01*
X212139275Y-50386844D01*
X212236844Y-50337129D01*
X212345000Y-50320000D01*
X212453156Y-50337130D01*
G37*
%TD.AperFunction*%
%TD*%
M02*
