%TF.GenerationSoftware,KiCad,Pcbnew,8.0.3*%
%TF.CreationDate,2024-07-23T11:53:19+01:00*%
%TF.ProjectId,ELI2040,454c4932-3034-4302-9e6b-696361645f70,rev?*%
%TF.SameCoordinates,Original*%
%TF.FileFunction,Soldermask,Bot*%
%TF.FilePolarity,Negative*%
%FSLAX46Y46*%
G04 Gerber Fmt 4.6, Leading zero omitted, Abs format (unit mm)*
G04 Created by KiCad (PCBNEW 8.0.3) date 2024-07-23 11:53:19*
%MOMM*%
%LPD*%
G01*
G04 APERTURE LIST*
%ADD10R,1.700000X1.700000*%
%ADD11O,1.700000X1.700000*%
%ADD12O,2.000000X1.100000*%
%ADD13O,1.800000X1.200000*%
G04 APERTURE END LIST*
D10*
%TO.C,J3*%
X223520000Y-43180000D03*
D11*
X223520000Y-45720000D03*
X223520000Y-48260000D03*
X223520000Y-50800000D03*
X223520000Y-53340000D03*
X223520000Y-55880000D03*
%TD*%
D10*
%TO.C,J1*%
X208280000Y-121920000D03*
D11*
X208280000Y-124460000D03*
%TD*%
D10*
%TO.C,J8*%
X215900000Y-119380000D03*
D11*
X218440000Y-119380000D03*
%TD*%
D10*
%TO.C,J5*%
X208280000Y-38085000D03*
D11*
X208280000Y-40625000D03*
%TD*%
D10*
%TO.C,J2*%
X223520000Y-38100000D03*
D11*
X223520000Y-40640000D03*
%TD*%
D10*
%TO.C,J4*%
X223520000Y-124460000D03*
D11*
X223520000Y-121920000D03*
X223520000Y-119380001D03*
X223520000Y-116840000D03*
X223520000Y-114300000D03*
X223520000Y-111760000D03*
X223520000Y-109220000D03*
X223520000Y-106679999D03*
X223520000Y-104140000D03*
X223520000Y-101600000D03*
X223520000Y-99060000D03*
X223520000Y-96520001D03*
X223520000Y-93980000D03*
X223520000Y-91440000D03*
X223520000Y-88900000D03*
X223520000Y-86360001D03*
X223520000Y-83819999D03*
X223520000Y-81280000D03*
X223520000Y-78740000D03*
X223520000Y-76200000D03*
X223520000Y-73660001D03*
X223520000Y-71120000D03*
X223520000Y-68580000D03*
X223520000Y-66040000D03*
X223520000Y-63500001D03*
X223520000Y-60959999D03*
X223520000Y-58420000D03*
%TD*%
D12*
%TO.C,USB2*%
X212865000Y-43455000D03*
D13*
X208665000Y-43455000D03*
D12*
X212865000Y-52105000D03*
D13*
X208665000Y-52105000D03*
%TD*%
D10*
%TO.C,J7*%
X215900000Y-124460000D03*
D11*
X218440000Y-124460000D03*
%TD*%
M02*
